<svg width="218" height="230" viewBox="0 0 218 230" fill="none" xmlns="http://www.w3.org/2000/svg">
<g clip-path="url(#clip0_1_619)">
<mask id="mask0_1_619" style="mask-type:luminance" maskUnits="userSpaceOnUse" x="0" y="0" width="300" height="297">
<path d="M300 0H0V296.082H300V0Z" fill="white"/>
</mask>
<g mask="url(#mask0_1_619)">
<path d="M291.076 135.126C291.076 135.788 290.639 136.438 290.632 137.1C290.619 137.761 290.993 138.423 290.971 139.084C290.951 139.746 291.527 140.429 291.498 141.087C291.468 141.749 291.337 142.408 291.3 143.067C291.259 143.728 291.437 144.406 291.385 145.065C291.334 145.726 291.549 146.414 291.488 147.07C291.429 147.729 290.961 148.356 290.89 149.012C290.819 149.671 290.58 150.311 290.5 150.967C290.417 151.623 289.632 152.186 289.544 152.84C289.451 153.496 290.354 154.291 290.254 154.944C290.154 155.598 290.034 156.254 289.924 156.907C289.815 157.561 289.393 158.161 289.271 158.809C289.149 159.46 289.266 160.159 289.134 160.804C289.002 161.452 288.412 162.007 288.273 162.653C288.132 163.298 288.049 163.957 287.898 164.6C287.746 165.245 288.395 166.083 288.232 166.723C288.071 167.366 287.612 167.939 287.441 168.579C287.273 169.22 286.641 169.737 286.461 170.372C286.28 171.01 286.195 171.674 286.005 172.306C285.812 172.941 285.112 173.415 284.912 174.045C284.712 174.677 284.451 175.28 284.239 175.907C284.029 176.533 284.285 177.315 284.068 177.936C283.846 178.561 284.251 179.412 284.022 180.03C283.793 180.652 282.902 181.033 282.661 181.649C282.422 182.265 282.912 183.172 282.663 183.786C282.417 184.399 280.776 184.447 280.517 185.055C280.259 185.666 280.229 186.362 279.961 186.968C279.695 187.574 280.168 188.507 279.893 189.11C279.615 189.713 278.507 189.929 278.222 190.526C277.934 191.124 278.178 191.969 277.88 192.561C277.585 193.153 277.327 193.767 277.024 194.354C276.72 194.943 276.054 195.343 275.741 195.927C275.429 196.512 275.329 197.205 275.005 197.784C274.68 198.363 274.312 198.912 273.98 199.486C273.649 200.059 273.166 200.542 272.824 201.11C272.485 201.678 272.456 202.43 272.107 202.993C271.756 203.556 270.71 203.681 270.351 204.239C269.993 204.796 270.176 205.693 269.81 206.244C269.441 206.797 269.478 207.616 269.102 208.162C268.727 208.709 268.476 209.349 268.093 209.891C267.71 210.432 267.085 210.808 266.693 211.345C266.302 211.881 265.549 212.153 265.151 212.683C264.751 213.212 264.744 214.038 264.334 214.561C263.927 215.084 263.137 215.314 262.722 215.828C262.307 216.346 261.756 216.748 261.332 217.261C260.91 217.77 260.627 218.394 260.195 218.898C259.763 219.402 259.488 220.037 259.049 220.536C258.607 221.035 257.949 221.339 257.505 221.83C257.056 222.321 257.207 223.355 256.754 223.838C256.302 224.324 255.085 224.097 254.624 224.574C254.161 225.052 254.576 226.372 254.105 226.842C253.637 227.311 252.605 227.236 252.129 227.698C251.656 228.162 251.688 229.151 251.205 229.608C250.722 230.064 250.166 230.456 249.676 230.906C249.185 231.355 248.056 231.115 247.559 231.555C247.061 231.997 247.273 233.238 246.773 233.67C246.268 234.105 245.017 233.678 244.507 234.105C243.998 234.531 243.416 234.865 242.899 235.284C242.383 235.702 242.124 236.433 241.604 236.844C241.08 237.255 240.681 237.823 240.152 238.226C239.623 238.628 238.909 238.788 238.374 239.186C237.84 239.581 237.392 240.09 236.85 240.477C236.308 240.864 235.909 241.451 235.363 241.829C234.816 242.207 234.29 242.621 233.737 242.992C233.184 243.363 232.253 243.17 231.694 243.533C231.136 243.897 230.963 244.848 230.399 245.202C229.836 245.556 229.485 246.263 228.916 246.61C228.346 246.954 227.443 246.764 226.868 247.101C226.293 247.436 225.341 247.118 224.761 247.448C224.181 247.775 223.701 248.256 223.115 248.574C222.53 248.894 222.096 249.474 221.505 249.783C220.917 250.093 220.407 250.553 219.81 250.856C219.217 251.157 218.853 251.92 218.254 252.214C217.655 252.503 217.075 252.856 216.471 253.138C215.866 253.422 214.704 252.51 214.094 252.784C213.487 253.059 213.301 254.255 212.688 254.52C212.076 254.785 211.442 255.006 210.824 255.261C210.209 255.519 209.545 255.668 208.925 255.914C208.304 256.159 207.773 256.633 207.147 256.869C206.524 257.108 205.93 257.447 205.304 257.673C204.679 257.899 203.742 257.281 203.111 257.498C202.48 257.714 201.746 257.601 201.109 257.808C200.475 258.017 199.86 258.249 199.223 258.448C198.587 258.646 198.15 259.471 197.508 259.659C196.868 259.849 196.021 259.308 195.379 259.486C194.737 259.666 194.249 260.374 193.604 260.543C192.959 260.711 192.382 261.135 191.732 261.296C191.084 261.455 190.553 262.114 189.903 262.264C189.252 262.413 188.47 261.994 187.814 262.134C187.161 262.271 186.511 262.423 185.856 262.553C185.2 262.68 184.556 262.861 183.897 262.981C183.242 263.101 182.481 262.615 181.82 262.726C181.162 262.834 180.565 263.301 179.904 263.4C179.243 263.499 178.628 263.905 177.965 263.997C177.304 264.088 176.627 264.062 175.963 264.141C175.302 264.221 174.56 263.573 173.894 263.645C173.23 263.715 172.593 263.97 171.927 264.028C171.263 264.088 170.619 264.341 169.952 264.389C169.286 264.44 168.655 264.977 167.986 265.015C167.319 265.056 166.661 265.321 165.992 265.35C165.325 265.379 164.656 265.648 163.987 265.67C163.321 265.689 162.636 265.359 161.967 265.371C161.298 265.381 160.62 264.315 159.949 264.315C159.28 264.315 158.6 265.79 157.931 265.781C157.262 265.771 156.606 264.94 155.937 264.924C155.268 264.904 154.61 264.681 153.943 264.652C153.274 264.62 152.584 265.039 151.917 265.001C151.248 264.96 150.533 265.499 149.867 265.451C149.198 265.4 148.521 265.355 147.854 265.297C147.188 265.237 146.516 265.107 145.853 265.037C145.186 264.967 144.606 264.122 143.942 264.043C143.279 263.963 142.529 264.507 141.868 264.416C141.204 264.324 140.503 264.433 139.845 264.331C139.184 264.233 138.736 262.798 138.078 262.687C137.417 262.579 136.613 263.301 135.954 263.181C135.296 263.06 134.724 262.504 134.069 262.372C133.413 262.242 132.617 262.769 131.964 262.632C131.311 262.492 130.75 261.922 130.1 261.773C129.447 261.623 128.956 260.839 128.306 260.68C127.656 260.519 126.73 261.431 126.086 261.262C125.438 261.096 125.052 259.979 124.41 259.801C123.766 259.623 123.018 259.816 122.379 259.628C121.737 259.438 121.011 259.527 120.374 259.329C119.735 259.132 119.174 258.694 118.54 258.487C117.906 258.277 117.404 257.695 116.773 257.478C116.141 257.259 115.408 257.334 114.782 257.108C114.153 256.881 113.722 256.149 113.098 255.916C112.475 255.678 111.526 256.27 110.905 256.024C110.285 255.779 109.756 255.302 109.141 255.049C108.523 254.792 108.043 254.229 107.43 253.964C106.818 253.699 106.397 253.027 105.787 252.755C105.178 252.481 104.344 252.705 103.74 252.421C103.135 252.139 102.429 252.065 101.83 251.773C101.231 251.48 100.465 251.504 99.871 251.203C99.2749 250.902 99.0858 249.833 98.4951 249.525C97.9044 249.214 97.3107 248.928 96.7254 248.608C96.14 248.288 95.1741 248.639 94.5941 248.312C94.0141 247.982 93.5473 247.452 92.9727 247.115C92.398 246.781 91.5266 246.916 90.9546 246.571C90.3856 246.225 89.8622 245.784 89.2983 245.433C88.7344 245.079 88.6156 244.034 88.0573 243.673C87.4988 243.31 86.5951 243.454 86.0419 243.083C85.489 242.713 85.4619 241.589 84.9144 241.211C84.3666 240.833 83.5356 240.857 82.9934 240.466C82.4512 240.079 81.8227 239.807 81.2885 239.413C80.7544 239.018 80.32 238.487 79.7912 238.084C79.2624 237.681 78.7768 237.226 78.2534 236.815C77.73 236.404 77.1634 236.049 76.6456 235.63C76.1302 235.212 75.1888 235.289 74.6788 234.862C74.169 234.435 74.1041 233.491 73.5997 233.056C73.0951 232.622 72.2129 232.606 71.7166 232.163C71.2202 231.72 71.3498 230.597 70.8615 230.149C70.3705 229.701 69.6717 229.477 69.1888 229.018C68.7058 228.562 68.25 228.082 67.7724 227.618C67.2949 227.154 66.4802 227.023 66.0107 226.554C65.5412 226.084 64.9666 225.703 64.5054 225.225C64.0439 224.748 64.4271 223.486 63.9739 223.001C63.5207 222.515 63.1158 222 62.668 221.51C62.2202 221.019 61.1412 221.085 60.7015 220.589C60.2617 220.091 60.0351 219.413 59.6061 218.909C59.1744 218.405 59.1851 217.543 58.7617 217.031C58.338 216.522 57.1727 216.607 56.7571 216.09C56.3417 215.572 55.9019 215.068 55.4946 214.545C55.0873 214.023 54.588 213.558 54.1888 213.03C53.7895 212.502 53.2015 212.099 52.8102 211.563C52.419 211.027 52.4163 210.213 52.0334 209.672C51.6502 209.131 50.9163 208.821 50.5415 208.274C50.1663 207.728 49.67 207.248 49.3059 206.695C48.939 206.143 49.2168 205.175 48.858 204.617C48.4993 204.06 48.1376 203.505 47.7868 202.943C47.439 202.38 47.2393 201.729 46.8993 201.161C46.5595 200.592 46.5244 199.854 46.1924 199.28C45.8607 198.707 44.5063 198.701 44.1854 198.123C43.8617 197.544 43.8132 196.81 43.5 196.229C43.1871 195.647 42.8229 195.082 42.518 194.495C42.2132 193.908 42.3698 193.089 42.0729 192.494C41.779 191.903 41.9624 191.086 41.6763 190.489C41.3905 189.891 41.2285 189.251 40.9507 188.648C40.6729 188.048 39.3105 187.928 39.0434 187.323C38.7763 186.717 39.2915 185.781 39.0324 185.17C38.7737 184.562 37.7134 184.277 37.4651 183.663C37.2168 183.05 37.2573 182.319 37.0173 181.703C36.7771 181.086 36.3805 180.524 36.1512 179.905C35.9219 179.286 36.5937 178.35 36.3724 177.726C36.1539 177.102 34.948 176.811 34.7376 176.184C34.5271 175.557 34.4624 174.88 34.2627 174.247C34.0632 173.618 34.0929 172.916 33.9012 172.282C33.7098 171.65 33.5398 171.012 33.359 170.374C33.1783 169.74 33.6261 168.94 33.4534 168.302C33.2834 167.665 31.9668 167.318 31.8051 166.675C31.6432 166.035 32.0263 165.261 31.8751 164.616C31.7241 163.973 31.0388 163.445 30.8985 162.797C30.7583 162.151 31.7161 161.279 31.5839 160.631C31.4544 159.983 31.1037 159.385 30.9822 158.734C30.8607 158.086 29.7278 157.609 29.6144 156.958C29.5039 156.307 30.1217 155.534 30.0217 154.88C29.922 154.227 30.3617 153.501 30.2727 152.845C30.181 152.191 28.8807 151.693 28.7998 151.036C28.7188 150.383 29.7224 149.602 29.6522 148.945C29.5822 148.289 29.0102 147.684 28.9507 147.025C28.8915 146.369 29.5659 145.654 29.5173 144.992C29.4661 144.334 28.279 143.752 28.2412 143.091C28.2007 142.432 29.2988 141.714 29.269 141.053C29.2395 140.394 28.0551 139.775 28.0334 139.114C28.0146 138.455 27.931 137.785 27.9202 137.124C27.9095 136.462 29.2854 135.79 29.2854 135.126C29.2854 134.465 28.7107 133.806 28.7215 133.144C28.7322 132.483 29.18 131.837 29.2017 131.176C29.2205 130.514 29.1505 129.858 29.18 129.199C29.2098 128.538 28.5434 127.844 28.5839 127.186C28.6244 126.524 28.1846 125.825 28.2359 125.166C28.2871 124.505 29.3232 123.926 29.3851 123.267C29.4444 122.608 29.8493 121.99 29.9193 121.333C29.9895 120.675 28.94 119.893 29.021 119.237C29.102 118.581 30.2807 118.066 30.3724 117.412C30.4641 116.756 30.5478 116.111 30.6478 115.457C30.7476 114.804 30.5344 114.108 30.6478 113.457C30.7583 112.803 30.7071 112.128 30.8285 111.478C30.9498 110.827 30.8393 110.133 30.9688 109.485C31.101 108.837 31.9293 108.336 32.0695 107.69C32.2098 107.045 31.7566 106.271 31.9076 105.628C32.0588 104.983 31.9239 104.271 32.0856 103.63C32.2476 102.988 32.5307 102.374 32.7007 101.737C32.8707 101.097 33.688 100.635 33.869 100C34.0498 99.3627 33.5505 98.5358 33.7422 97.9011C33.9337 97.2663 33.6559 96.4847 33.8554 95.8552C34.0551 95.2231 34.3734 94.6203 34.5839 93.9935C34.7941 93.3667 35.9895 93.0679 36.2078 92.4438C36.429 91.8196 36.5505 91.166 36.7798 90.5472C37.0093 89.9259 36.5963 89.067 36.8339 88.4508C37.0739 87.8345 37.3356 87.2212 37.5866 86.6076C37.8346 85.9942 37.7456 85.234 38.0046 84.6258C38.2637 84.0151 39.3617 83.7563 39.6288 83.1509C39.8959 82.5452 40.4919 82.0893 40.7673 81.4863C41.0451 80.8836 40.1844 79.758 40.4705 79.1605C40.7563 78.563 41.0585 77.9603 41.3527 77.3681C41.6495 76.776 42.688 76.5466 42.9929 75.9597C43.2978 75.3702 44.0585 75.0235 44.3715 74.442C44.6844 73.858 44.598 73.0658 44.9219 72.4869C45.2456 71.9082 45.4534 71.2679 45.7851 70.6945C46.1171 70.1211 45.9524 69.2567 46.2924 68.6886C46.6322 68.1205 46.8671 67.4749 47.2151 66.9121C47.5656 66.3493 48.1268 65.9066 48.4829 65.3491C48.8417 64.7916 49.7644 64.5916 50.1315 64.0396C50.4983 63.4874 50.9434 62.9913 51.3183 62.4444C51.6934 61.8977 52.1141 61.3881 52.4973 60.8467C52.8805 60.3054 52.902 59.5105 53.2932 58.9769C53.6844 58.4408 54.1402 57.9526 54.5422 57.4218C54.9415 56.8937 55.1817 56.2404 55.589 55.7175C55.9963 55.1947 56.3607 54.6319 56.7761 54.1144C57.1915 53.5971 58.3166 53.6476 58.74 53.1383C59.1637 52.6287 59.3956 51.9672 59.8273 51.4631C60.259 50.9591 60.4478 50.2521 60.8849 49.7533C61.3246 49.2545 61.4405 48.4732 61.8885 47.9823C62.3363 47.4915 62.5763 46.8033 63.0295 46.3178C63.4829 45.8325 64.7239 46.0778 65.1878 45.6004C65.6493 45.1229 65.3795 43.9388 65.8488 43.4691C66.3183 42.9997 67.4351 43.1651 67.9127 42.701C68.3876 42.2369 68.8488 41.7622 69.3317 41.306C69.8146 40.8499 69.7822 39.8497 70.2732 39.3988C70.7641 38.9509 71.6329 38.908 72.1319 38.4653C72.6285 38.0227 73.0951 37.5504 73.5997 37.1156C74.1041 36.6809 75.0295 36.7423 75.5422 36.3155C76.0519 35.8887 75.82 34.5816 76.338 34.163C76.8532 33.7442 77.4415 33.4002 77.9646 32.9893C78.488 32.5786 79.6912 33.0292 80.22 32.6265C80.7488 32.2238 80.7112 31.085 81.2454 30.6902C81.7795 30.2954 82.1922 29.7247 82.7344 29.3378C83.2768 28.951 83.7973 28.5242 84.3451 28.1456C84.8927 27.7667 85.319 27.1986 85.8719 26.8305C86.4251 26.4598 87.3666 26.6546 87.9251 26.2918C88.4834 25.929 89.2551 25.897 89.819 25.5422C90.3827 25.1874 90.4827 24.0938 91.0519 23.7498C91.621 23.4057 92.3388 23.2883 92.9134 22.9523C93.488 22.6162 94.4646 22.9629 95.0446 22.6348C95.6246 22.3067 96.0185 21.6639 96.6039 21.3439C97.1893 21.0238 97.9744 21.0851 98.5654 20.7757C99.1534 20.4663 99.3207 19.3567 99.9141 19.0553C100.508 18.7539 101.606 19.4501 102.207 19.1593C102.806 18.8686 103.176 18.1244 103.78 17.8417C104.384 17.5589 104.57 16.38 105.178 16.1052C105.785 15.8305 106.697 16.2146 107.309 15.9505C107.921 15.6865 108.688 15.7825 109.303 15.5264C109.918 15.2704 110.196 14.1928 110.816 13.9474C111.437 13.702 112.37 14.2408 112.993 14.0034C113.616 13.766 114.024 12.9578 114.652 12.7311C115.278 12.5044 115.848 12.091 116.479 11.8722C117.11 11.6562 117.871 11.8002 118.505 11.5922C119.139 11.3841 119.635 10.7386 120.275 10.5412C120.911 10.3438 121.945 11.4295 122.587 11.2401C123.226 11.0507 123.868 10.912 124.51 10.7333C125.152 10.5546 125.665 9.93042 126.31 9.76237C126.954 9.59435 127.394 8.62077 128.042 8.46342C128.689 8.30336 129.604 9.25027 130.257 9.10088C130.907 8.95152 131.46 8.39671 132.113 8.25536C132.766 8.11666 133.386 7.82857 134.041 7.70056C134.697 7.57252 135.439 7.91128 136.097 7.79124C136.753 7.67122 137.452 7.83124 138.11 7.72189C138.768 7.61253 139.251 6.43891 139.912 6.34022C140.573 6.24152 141.215 5.97481 141.879 5.88411C142.54 5.79343 143.292 6.3829 143.956 6.30288C144.617 6.22287 145.178 5.21994 145.844 5.14795C146.508 5.07859 147.21 5.29197 147.876 5.23063C148.54 5.17195 149.203 4.96389 149.87 4.91587C150.536 4.8652 151.262 5.62806 151.931 5.58805C152.597 5.54804 153.258 5.45734 153.927 5.428C154.594 5.39865 155.249 4.99324 155.921 4.97456C156.587 4.95588 157.264 5.09992 157.933 5.08926C158.602 5.07859 159.277 5.51068 159.949 5.51068C160.618 5.51068 161.281 5.55069 161.95 5.56138C162.619 5.57204 163.302 4.94254 163.971 4.96389C164.64 4.98257 165.285 5.64938 165.951 5.67873C166.62 5.70807 167.262 6.09216 167.929 6.13217C168.598 6.17217 169.35 4.96122 170.014 5.00924C170.683 5.05992 171.371 4.96924 172.035 5.0279C172.701 5.08659 173.368 5.25995 174.031 5.3293C174.698 5.39865 175.267 6.31622 175.93 6.39623C176.594 6.47625 177.317 6.10282 177.978 6.19352C178.642 6.2842 179.384 5.87879 180.042 5.98013C180.703 6.07882 181.229 7.04172 181.887 7.1511C182.548 7.26046 183.109 7.88459 183.765 8.00196C184.423 8.12198 185.23 7.44448 185.886 7.57519C186.541 7.70588 187.108 8.25536 187.76 8.39671C188.413 8.53541 189.252 7.87392 189.903 8.02329C190.555 8.17268 191.114 8.71679 191.764 8.87685C192.414 9.03688 193.169 8.79681 193.817 8.96753C194.465 9.13557 195.15 9.19426 195.795 9.37297C196.439 9.55167 197.079 9.77573 197.718 9.96511C198.36 10.1545 198.63 11.5388 199.267 11.7362C199.906 11.9336 200.648 11.7895 201.282 11.9976C201.916 12.2057 202.539 12.4324 203.17 12.6511C203.802 12.8698 204.554 12.7471 205.18 12.9738C205.809 13.2006 206.33 13.71 206.953 13.9447C207.576 14.1821 208.477 13.7287 209.098 13.9741C209.718 14.2195 210.08 15.0997 210.695 15.3557C211.312 15.6118 211.839 16.0679 212.451 16.332C213.063 16.596 213.568 17.0868 214.175 17.3616C214.785 17.6363 215.683 17.2842 216.287 17.5669C216.891 17.8497 217.463 18.2017 218.062 18.4925C218.661 18.7859 219.6 18.4258 220.194 18.7272C220.79 19.0286 220.925 20.2076 221.516 20.5197C222.106 20.8291 222.64 21.2318 223.226 21.5519C223.811 21.872 224.885 21.3359 225.465 21.6639C226.045 21.992 226.296 22.8909 226.871 23.227C227.445 23.5631 227.597 24.5873 228.166 24.9342C228.735 25.2808 229.652 25.062 230.216 25.4168C230.78 25.7716 231.587 25.7555 232.145 26.1182C232.703 26.481 233.038 27.1827 233.591 27.5534C234.144 27.9241 235.015 27.8415 235.563 28.2228C236.111 28.6017 236.761 28.855 237.3 29.2418C237.843 29.6286 237.646 31.0101 238.18 31.4049C238.714 31.7996 239.548 31.8023 240.077 32.2053C240.605 32.608 241.053 33.112 241.577 33.5227C242.1 33.9336 242.604 34.3604 243.122 34.779C243.638 35.1978 244.234 35.5207 244.744 35.9474C245.254 36.3742 246.044 36.4809 246.549 36.9156C247.054 37.3503 247.729 37.5985 248.227 38.0412C248.722 38.4839 248.666 39.5296 249.154 39.9778C249.646 40.4257 250.044 40.9618 250.527 41.418C251.01 41.8741 251.917 41.8982 252.393 42.3623C252.866 42.8264 253.144 43.4879 253.615 43.96C254.083 44.4294 254.319 45.1202 254.78 45.5978C255.241 46.0751 255.99 46.2831 256.444 46.7686C256.898 47.2542 257.593 47.5262 258.039 48.017C258.485 48.5078 258.193 49.644 258.632 50.1428C259.071 50.6415 260.222 50.5323 260.654 51.0363C261.085 51.5404 261.734 51.874 262.159 52.386C262.583 52.8954 261.983 54.2239 262.398 54.7385C262.815 55.2561 263.524 55.536 263.932 56.0589C264.339 56.5817 264.954 56.9471 265.351 57.4779C265.751 58.006 266.627 58.1981 267.017 58.7316C267.407 59.2676 266.841 60.476 267.224 61.0174C267.607 61.559 267.985 62.0925 268.361 62.6391C268.737 63.186 269.91 63.2019 270.276 63.7568C270.644 64.309 270.739 65.0372 271.095 65.5947C271.456 66.1519 271.161 67.1068 271.51 67.6696C271.856 68.2324 272.988 68.3258 273.327 68.8939C273.668 69.4623 274.485 69.7636 274.817 70.337C275.149 70.9104 274.151 72.2228 274.471 72.8017C274.795 73.3804 276.354 73.2952 276.668 73.8765C276.98 74.4581 276.188 75.6157 276.493 76.2023C276.798 76.7892 277.561 77.144 277.856 77.7362C278.151 78.3283 278.61 78.843 278.895 79.4405C279.18 80.0382 279.012 80.841 279.288 81.4437C279.563 82.0438 279.956 82.5907 280.222 83.1961C280.49 83.8015 281.246 84.199 281.505 84.8099C281.763 85.418 281.605 86.1969 281.851 86.8103C282.1 87.4239 282.368 88.0266 282.605 88.6455C282.844 89.2617 283.91 89.5763 284.144 90.1979C284.373 90.8168 284.241 91.5743 284.461 92.1982C284.68 92.8224 284.288 93.6519 284.5 94.2787C284.71 94.9056 284.529 95.6499 284.729 96.282C284.927 96.9115 286.351 97.1702 286.544 97.805C286.734 98.4371 285.656 99.432 285.837 100.067C286.017 100.702 286.4 101.273 286.571 101.913C286.741 102.55 287.063 103.145 287.227 103.785C287.388 104.425 287.156 105.151 287.307 105.794C287.459 106.436 287.832 107.021 287.971 107.669C288.112 108.314 288.124 108.978 288.256 109.627C288.385 110.275 289.312 110.768 289.434 111.419C289.554 112.067 289.9 112.683 290.01 113.337C290.122 113.988 289.749 114.719 289.851 115.372C289.951 116.025 290.227 116.655 290.317 117.308C290.41 117.962 290.363 118.634 290.444 119.29C290.527 119.944 290.327 120.629 290.395 121.288C290.466 121.944 291.393 122.52 291.454 123.179C291.512 123.835 291 124.547 291.049 125.206C291.1 125.865 291.122 126.527 291.163 127.188C291.202 127.847 290.841 128.524 290.871 129.186C290.9 129.845 290.79 130.506 290.812 131.168C290.832 131.827 290.739 132.483 290.749 133.144C290.759 133.806 291.076 134.459 291.076 135.126Z" stroke="#F5CC82" stroke-opacity="0.4" stroke-width="1.7008" stroke-miterlimit="10"/>
<path d="M161.271 35.5156C161.519 36.121 161.802 36.697 161.991 37.3159C162.18 37.9401 162.396 38.5482 162.525 39.1829C162.655 39.8206 162.941 40.4366 163.014 41.0822C163.084 41.7275 163.035 42.3864 163.049 43.0373C163.062 43.6829 162.855 44.323 162.811 44.9739C162.768 45.6192 162.82 46.2675 162.722 46.9128C162.628 47.5505 162.566 48.1985 162.42 48.8362C162.277 49.4656 162.126 50.0978 161.937 50.7246C161.748 51.3406 161.705 52.0209 161.473 52.6342C161.244 53.2372 160.621 53.6852 160.348 54.2826C160.081 54.8695 159.914 55.5016 159.604 56.0832C159.301 56.6513 158.848 57.1368 158.506 57.697C158.171 58.2489 158.069 58.9504 157.699 59.492C157.335 60.0254 156.946 60.5535 156.55 61.0764C156.159 61.591 155.81 62.1538 155.387 62.6555C154.969 63.149 154.3 63.4316 153.852 63.9144C153.412 64.3891 153.172 65.0586 152.703 65.52C152.241 65.9735 151.669 66.3284 151.181 66.7684C150.698 67.2031 150.059 67.4592 149.551 67.8781C149.05 68.2914 148.602 68.769 148.076 69.1664C147.558 69.5583 147.032 69.9425 146.492 70.3185C145.961 70.6894 145.483 71.1482 144.93 71.5002C144.383 71.8497 143.746 72.063 143.177 72.3964C142.613 72.7244 142.03 73.0179 141.45 73.3272C140.875 73.6341 140.425 74.1808 139.834 74.4716C139.246 74.7571 138.585 74.901 137.981 75.1677C137.382 75.4318 136.745 75.6078 136.13 75.8533C135.518 76.0986 134.889 76.2748 134.274 76.4934C133.653 76.7148 133.149 77.2723 132.528 77.4697C131.9 77.6697 131.255 77.8351 130.626 78.0084C129.99 78.1844 129.294 78.1286 128.66 78.2778C128.018 78.4299 127.397 78.6699 126.755 78.7927C126.105 78.9181 125.455 79.0139 124.81 79.1126C124.157 79.2142 123.501 79.2835 122.854 79.3555C122.196 79.4301 121.535 79.3981 120.885 79.4433C120.224 79.4915 119.576 79.745 118.923 79.7635C118.26 79.7823 117.596 79.7876 116.943 79.777C116.282 79.7661 115.637 79.4007 114.987 79.3634C114.326 79.3235 113.641 79.6301 112.993 79.5582C112.335 79.4888 111.677 79.3981 111.035 79.2967C110.382 79.1954 109.775 78.8541 109.138 78.7207C108.491 78.5845 107.819 78.5686 107.19 78.4006C106.551 78.2299 105.993 77.8137 105.375 77.611C104.746 77.4057 103.999 77.5311 103.392 77.2935C102.777 77.0509 102.348 76.4 101.76 76.1227C101.161 75.8398 100.392 75.8985 99.8227 75.5839C99.2454 75.2638 98.8515 74.6557 98.3066 74.3009C97.7561 73.9408 97.0493 73.7995 96.5341 73.4047C96.0134 73.0046 95.49 72.5884 95.0097 72.1537C94.5241 71.7137 94.2922 71.0228 93.8498 70.5479C93.4046 70.0705 92.8541 69.689 92.4549 69.177C92.0529 68.6648 91.5054 68.2409 91.1546 67.6939C90.8039 67.1499 90.6312 66.4855 90.329 65.9069C90.0295 65.3335 89.7005 64.7625 89.4549 64.1571C89.2068 63.5517 88.9776 62.9328 88.7885 62.3139C88.5998 61.6897 88.4434 61.0497 88.3139 60.4149C88.1844 59.7775 88.2868 59.1052 88.2166 58.4598C88.1466 57.8142 87.7932 57.1821 87.7797 56.5338C87.7661 55.8885 88.1141 55.2429 88.1546 54.5922C88.1978 53.9466 88.2166 53.3065 88.3112 52.6609C88.4056 52.0235 88.3598 51.3541 88.5054 50.7164C88.6483 50.0869 88.9073 49.4815 89.0961 48.8547C89.2851 48.2385 89.5412 47.641 89.7734 47.0277C90.0027 46.4249 90.1429 45.7793 90.4154 45.1818C90.6824 44.595 91.0117 44.0295 91.3193 43.4482C91.6215 42.8799 91.9776 42.3332 92.32 41.7704C92.6546 41.2182 92.9729 40.6474 93.3424 40.1058C93.7068 39.5724 94.1788 39.111 94.5754 38.5881C94.9666 38.0735 95.4685 37.6467 95.8919 37.1453C96.3102 36.6518 96.6554 36.0969 97.1034 35.6143C97.5432 35.1394 97.8749 34.5551 98.3417 34.0966C98.8029 33.6431 99.2993 33.2136 99.7902 32.7736C100.273 32.3386 100.729 31.8639 101.236 31.4451C101.738 31.0318 102.208 30.5624 102.734 30.1649C103.252 29.7728 103.853 29.4767 104.396 29.1005C104.927 28.7298 105.499 28.4072 106.055 28.0524C106.602 27.7029 107.266 27.5322 107.835 27.1988C108.399 26.8707 108.828 26.3026 109.411 25.9904C109.985 25.6837 110.573 25.3877 111.164 25.0995C111.752 24.8143 112.389 24.6142 112.993 24.3475C113.592 24.0835 114.172 23.7633 114.788 23.5179C115.4 23.2725 116.061 23.1632 116.676 22.9445C117.297 22.7231 117.911 22.4963 118.535 22.299C119.163 22.0989 119.73 21.6908 120.359 21.5174C120.995 21.3414 121.659 21.2614 122.296 21.112C122.938 20.96 123.612 20.952 124.251 20.8266C124.902 20.7012 125.544 20.5572 126.189 20.4585C126.841 20.3572 127.51 20.4212 128.16 20.3465C128.819 20.2718 129.469 20.2291 130.119 20.1838C130.769 20.1464 131.417 19.9757 132.07 19.9571C132.733 19.9384 133.392 19.7437 134.045 19.7543C134.706 19.765 135.361 19.9864 136.011 20.0237C136.672 20.0637 137.349 19.8957 138 19.9651C138.658 20.0344 139.251 20.5412 139.896 20.6426C140.549 20.7439 141.199 20.7919 141.836 20.9253C142.483 21.0613 143.177 20.9866 143.805 21.1547C144.445 21.3254 144.998 21.7575 145.615 21.9602C146.244 22.1656 146.916 22.2296 147.52 22.4697C148.135 22.7124 148.742 22.9604 149.33 23.2378C149.929 23.5206 150.458 23.918 151.025 24.2327C151.602 24.5529 152.195 24.8275 152.738 25.1823C153.288 25.5424 153.811 25.9293 154.327 26.3267C154.847 26.7268 155.314 27.1774 155.797 27.6121C156.283 28.0524 156.82 28.4337 157.265 28.9086C157.71 29.386 157.95 30.0234 158.349 30.5356C158.751 31.0476 159.272 31.4638 159.622 32.0108C159.973 32.5548 160.424 33.0509 160.726 33.6296C161.023 34.2032 161.023 34.91 161.271 35.5156Z" stroke="#F5CC82" stroke-opacity="0.4" stroke-width="1.7008" stroke-miterlimit="10"/>
<path d="M140.53 19.7596C140.994 19.2768 141.493 18.8314 141.962 18.3566C142.432 17.8818 142.893 17.3964 143.37 16.9269C143.848 16.4602 144.339 16.004 144.822 15.5426C145.305 15.0812 145.809 14.6411 146.3 14.1876C146.791 13.7342 147.239 13.2354 147.738 12.7873C148.235 12.3392 148.758 11.9204 149.263 11.4803C149.767 11.0402 150.282 10.6134 150.792 10.1813C151.302 9.7492 151.839 9.34643 152.354 8.92234C152.872 8.49824 153.382 8.06346 153.906 7.64735C154.429 7.23125 154.947 6.80716 155.478 6.39907C156.007 5.99096 156.517 5.55352 157.051 5.15076" stroke="#F5CC82" stroke-opacity="0.4" stroke-width="1.7008" stroke-miterlimit="10"/>
<path d="M153.172 263.33C152.656 262.909 152.23 262.386 151.723 261.96C151.213 261.532 150.819 260.981 150.315 260.545C149.813 260.112 148.785 260.261 148.289 259.818C147.792 259.375 147.811 258.376 147.323 257.928C146.832 257.481 145.807 257.594 145.326 257.139C144.844 256.684 144.455 256.123 143.98 255.661C143.503 255.201 143.465 254.301 142.996 253.831C142.526 253.362 141.911 253.039 141.447 252.565C140.983 252.091 140.13 251.975 139.675 251.496C139.219 251.013 139.521 249.84 139.073 249.354C138.622 248.865 137.557 248.93 137.114 248.437C136.672 247.943 136.459 247.25 136.022 246.75C135.587 246.251 134.953 245.917 134.524 245.409C134.095 244.903 133.61 244.439 133.189 243.928C132.768 243.416 132.185 243.028 131.773 242.511C131.357 241.993 131.519 241.03 131.112 240.506C130.704 239.983 129.752 239.869 129.353 239.341C128.953 238.813 128.943 237.996 128.549 237.463C128.155 236.929 128.174 236.108 127.788 235.569C127.402 235.03 126.393 234.924 126.015 234.38C125.638 233.835 125.579 233.078 125.209 232.528C124.839 231.979 124.443 231.451 124.079 230.896C123.714 230.344 123.66 229.6 123.304 229.042C122.948 228.485 122.438 228.029 122.088 227.466C121.74 226.903 120.946 226.607 120.604 226.041C120.264 225.476 119.87 224.935 119.535 224.364C119.201 223.793 118.812 223.249 118.486 222.673C118.16 222.096 117.709 221.584 117.39 221.006C117.072 220.427 116.856 219.787 116.546 219.203C116.236 218.618 115.926 218.029 115.621 217.442C115.316 216.855 115.335 216.106 115.038 215.514C114.741 214.924 114.685 214.217 114.396 213.623C114.107 213.028 113.757 212.465 113.473 211.867C113.19 211.27 112.521 210.848 112.246 210.248C111.971 209.648 112.327 208.771 112.06 208.165C111.793 207.562 111.097 207.141 110.835 206.535C110.576 205.927 110.697 205.164 110.444 204.556C110.19 203.945 109.91 203.351 109.664 202.74C109.419 202.126 109.1 201.545 108.863 200.929C108.625 200.313 107.749 199.931 107.517 199.312C107.287 198.693 107.527 197.904 107.303 197.283C107.08 196.661 107.001 195.991 106.783 195.367C106.567 194.743 106.173 194.18 105.963 193.554C105.755 192.927 105.566 192.295 105.364 191.665C105.161 191.036 104.495 190.548 104.301 189.918C104.107 189.289 104.83 188.387 104.643 187.752C104.457 187.12 103.367 186.741 103.187 186.106C103.006 185.472 102.928 184.805 102.758 184.167C102.585 183.53 102.385 182.895 102.218 182.258C102.053 181.62 102.825 180.748 102.669 180.108C102.51 179.468 102.25 178.857 102.099 178.214C101.948 177.571 101.15 177.075 101.007 176.432C100.864 175.789 100.481 175.192 100.346 174.546C100.208 173.901 100.127 173.239 99.9978 172.594C99.8683 171.948 100.357 171.18 100.235 170.532C100.114 169.884 99.2558 169.366 99.1397 168.716C99.0239 168.068 99.1668 167.369 99.0588 166.718C98.951 166.067 99.3719 165.333 99.2693 164.68C99.1668 164.029 98.8834 163.405 98.789 162.752C98.6946 162.098 98.5329 161.455 98.4466 160.802C98.3602 160.148 97.8746 159.543 97.7937 158.887C97.7127 158.233 98.0041 157.532 97.9285 156.878C97.8556 156.222 97.9717 155.547 97.9041 154.891C97.8368 154.235 97.6668 153.589 97.6076 152.933C97.548 152.277 97.3673 151.629 97.3134 150.973C97.2622 150.317 97.3673 149.647 97.3215 148.988C97.2756 148.329 96.8575 147.694 96.8197 147.036C96.7819 146.377 97.2729 145.691 97.2405 145.033C97.2083 144.374 96.9519 143.725 96.9276 143.067C96.9034 142.408 97.0463 141.744 97.0302 141.085C97.0112 140.426 97.2595 139.765 97.2485 139.103C97.2378 138.444 96.469 137.793 96.4636 137.135C96.4583 136.476 96.809 135.814 96.8117 135.153C96.8144 134.494 96.9412 133.835 96.9519 133.176C96.9627 132.517 97.3539 131.867 97.37 131.208C97.3863 130.549 97.2163 129.888 97.2378 129.229C97.2622 128.57 97.1354 127.906 97.1678 127.247C97.1973 126.588 96.7602 125.905 96.7954 125.246C96.8332 124.587 97.1056 123.942 97.1515 123.283C97.1946 122.624 97.7288 122.003 97.7802 121.347C97.8315 120.688 97.5912 120.01 97.648 119.354C97.7073 118.698 97.6237 118.026 97.6883 117.37C97.7532 116.714 97.7773 116.052 97.8502 115.396C97.9232 114.74 97.548 114.03 97.629 113.377C97.7073 112.721 98.7917 112.19 98.878 111.537C98.9644 110.883 98.7271 110.187 98.8188 109.536C98.9105 108.882 99.3934 108.288 99.4932 107.637C99.5932 106.983 98.9563 106.221 99.0617 105.57C99.1695 104.919 99.2856 104.265 99.3988 103.617C99.5122 102.966 99.4258 102.278 99.5444 101.63C99.6658 100.982 100.567 100.478 100.697 99.8324C100.823 99.1841 100.219 98.3919 100.354 97.7466C100.489 97.101 100.955 96.522 101.096 95.8767C101.239 95.2311 101.929 94.7111 102.078 94.0682C102.226 93.4255 102.14 92.7319 102.296 92.0916C102.453 91.4489 102.607 90.8115 102.768 90.1712C102.93 89.5311 102.809 88.8217 102.979 88.1841C103.149 87.5467 103.688 87.0106 103.866 86.3729C104.044 85.7355 104.295 85.1274 104.481 84.4927C104.665 83.8577 104.163 83.0282 104.355 82.396C104.546 81.7639 105.102 81.2411 105.299 80.6116C105.496 79.9821 105.9 79.4193 106.106 78.7925C106.311 78.1657 106.653 77.587 106.864 76.9655" stroke="#F5CC82" stroke-opacity="0.4" stroke-width="1.7008" stroke-miterlimit="10"/>
<path d="M162.932 36.9825C163.599 37.009 164.238 37.5747 164.904 37.612C165.571 37.6493 166.226 37.7666 166.89 37.8121C167.556 37.86 168.263 37.3506 168.927 37.4064C169.591 37.4625 170.233 37.7692 170.896 37.8359C171.56 37.9026 172.221 37.9854 172.882 38.0626C173.546 38.1402 174.201 38.2521 174.862 38.3402C175.523 38.4254 176.222 38.2521 176.88 38.3481C177.541 38.4442 178.124 39.0123 178.782 39.1189C179.44 39.2258 180.201 38.735 180.857 38.8495C181.512 38.9644 182.052 39.7137 182.707 39.8391C183.363 39.9645 184.067 39.8259 184.72 39.9593C185.373 40.0926 185.95 40.5647 186.6 40.706C187.251 40.8501 187.925 40.8766 188.572 41.0288C189.22 41.1809 189.916 41.1407 190.561 41.3034C191.208 41.4661 191.767 41.9437 192.411 42.1144C193.056 42.2851 193.777 42.1678 194.419 42.3491C195.061 42.5304 195.681 42.7706 196.32 42.9598C196.96 43.1492 197.591 43.3519 198.228 43.5493C198.865 43.7467 199.539 43.8216 200.173 44.0295C200.807 44.2375 201.503 44.2589 202.134 44.4749C202.763 44.691 203.386 44.9363 204.012 45.1604C204.638 45.3845 205.121 45.9952 205.744 46.2299C206.367 46.4646 206.944 46.8009 207.565 47.0436C208.186 47.2862 209.006 47.0303 209.623 47.2809C210.241 47.5317 210.794 47.9345 211.407 48.1932C212.019 48.452 212.699 48.5666 213.306 48.8333C213.916 49.1 214.587 49.2387 215.194 49.5136C215.799 49.7882 216.228 50.4471 216.829 50.7299C217.431 51.0125 217.954 51.4499 218.553 51.7433C219.152 52.0341 219.724 52.3675 220.318 52.6662C220.911 52.965 221.807 52.6903 222.398 52.997C222.989 53.3036 223.48 53.7971 224.065 54.1146C224.65 54.4319 225.273 54.6854 225.853 55.0082C226.433 55.331 226.914 55.835 227.488 56.1658C228.066 56.4965 228.489 57.0781 229.061 57.4168C229.633 57.7555 230.31 57.9182 230.877 58.2648C231.443 58.6117 232.04 58.9131 232.601 59.2679C233.162 59.6227 233.631 60.1188 234.19 60.4787C234.748 60.8388 235.363 61.1137 235.914 61.4818C236.467 61.8498 237.214 61.9379 237.762 62.3139C238.309 62.6899 238.846 63.0874 239.389 63.4715C239.931 63.8557 240.106 64.7358 240.643 65.1279C241.18 65.5174 241.779 65.8214 242.31 66.2188C242.842 66.6163 243.298 67.1071 243.824 67.5098C244.349 67.9152 244.866 68.3261 245.385 68.7367C245.907 69.1477 246.527 69.4329 247.041 69.8491C247.559 70.2679 248.159 70.5799 248.668 71.0041C249.178 71.4282 249.522 72.0416 250.027 72.4736C250.529 72.9057 251.212 73.1325 251.712 73.5699C252.212 74.0075 252.783 74.3647 253.273 74.8103C253.766 75.2556 254.054 75.9171 254.539 76.368C255.024 76.8188 255.715 77.0562 256.195 77.515C256.676 77.9711 256.868 78.7205 257.341 79.1846C257.817 79.6487 258.571 79.8328 259.039 80.3022C259.505 80.7716 259.861 81.3506 260.324 81.8253C260.785 82.3002 261.176 82.8389 261.632 83.3216C262.088 83.8044 262.454 84.3619 262.902 84.8475C263.351 85.3354 264.2 85.4661 264.644 85.9596C265.085 86.4531 265.132 87.2879 265.568 87.7866C266.002 88.2856 266.844 88.4428 267.273 88.9498C267.702 89.4538 268.056 90.0246 268.476 90.5368C268.898 91.0462 268.985 91.8225 269.402 92.3398C269.817 92.8547 270.341 93.2841 270.749 93.807C271.156 94.3269 271.854 94.6338 272.254 95.1593C272.654 95.6846 272.485 96.6289 272.876 97.1623C273.271 97.6931 274.122 97.8958 274.51 98.4347C274.895 98.9708 275.11 99.6297 275.488 100.171C275.866 100.713 276.39 101.161 276.761 101.708C277.132 102.254 277.544 102.78 277.907 103.332C278.273 103.884 278.751 104.367 279.107 104.924C279.463 105.482 279.395 106.301 279.741 106.863C280.09 107.426 280.837 107.751 281.178 108.317C281.517 108.883 281.568 109.619 281.902 110.189C282.234 110.76 282.266 111.499 282.588 112.075C282.912 112.651 283.693 112.98 284.007 113.558C284.324 114.137 284.405 114.841 284.712 115.426C285.02 116.01 285.346 116.583 285.646 117.172C285.944 117.762 286.02 118.458 286.312 119.05C286.602 119.642 287.005 120.178 287.288 120.776C287.571 121.374 288.176 121.824 288.451 122.424C288.727 123.024 289.034 123.614 289.3 124.217C289.566 124.822 289.871 125.415 290.127 126.023C290.383 126.631 290.727 127.21 290.976 127.821C291.224 128.431 291.395 129.079 291.634 129.693C291.876 130.309 292.11 130.931 292.341 131.549" stroke="#F5CC82" stroke-opacity="0.4" stroke-width="1.7008" stroke-miterlimit="10"/>
<path d="M29.369 114.641C29.6737 114.057 29.8249 113.396 30.1378 112.817C30.4507 112.238 30.9581 111.766 31.279 111.192C31.6 110.619 31.9373 110.056 32.2663 109.485C32.5956 108.917 32.7412 108.24 33.0785 107.677C33.4156 107.111 33.9578 106.669 34.3032 106.109C34.6485 105.548 35.0073 104.999 35.3607 104.444C35.7141 103.889 35.9059 103.233 36.2673 102.684C36.6288 102.134 37.0146 101.598 37.3841 101.054C37.7537 100.51 38.1988 100.016 38.5766 99.4775C38.9544 98.9388 39.2078 98.312 39.591 97.7785C39.9768 97.2451 40.3329 96.6876 40.7268 96.1595C41.1178 95.6314 41.5254 95.1085 41.9246 94.5857C42.3239 94.0628 42.7015 93.5188 43.109 93.0013C43.5163 92.484 44.0666 92.0757 44.4822 91.5664C44.8976 91.0541 45.2239 90.4728 45.6449 89.9658C46.0656 89.4591 46.6781 89.1096 47.1071 88.6108C47.5361 88.1094 47.9056 87.5627 48.3427 87.0693C48.7771 86.5758 49.2061 86.0744 49.6485 85.5862C50.091 85.098 50.412 84.5006 50.8624 84.0177C51.3102 83.5351 51.7527 83.0442 52.2085 82.5669C52.6646 82.0893 53.2339 81.7213 53.6951 81.2519C54.1566 80.7825 54.5559 80.2488 55.0251 79.7847C55.4946 79.3206 56.0154 78.9073 56.49 78.4511C56.9649 77.9923 57.3454 77.4348 57.8256 76.9842C58.3056 76.5333 58.7859 76.0772 59.2742 75.6318C59.7624 75.1863 60.2644 74.7542 60.7581 74.3168C61.2517 73.8794 61.7671 73.4632 62.2661 73.0311C62.7651 72.5991 63.2671 72.1696 63.7715 71.7428C64.2761 71.3187 64.9451 71.0866 65.4549 70.668C65.9649 70.2492 66.499 69.8623 67.0144 69.449C67.5295 69.0381 67.8829 68.4248 68.4063 68.0192C68.9271 67.6138 69.5232 67.3018 70.0493 66.9044C70.5754 66.507 71.1095 66.1149 71.641 65.7254C72.1724 65.3332 72.7176 64.9599 73.2544 64.5757C73.7912 64.1918 74.2578 63.7089 74.8029 63.3329C75.3451 62.9566 76.0168 62.7646 76.5646 62.3938C77.1122 62.0231 77.5034 61.423 78.0563 61.0603C78.6095 60.6975 79.3298 60.5882 79.8883 60.2334C80.4468 59.8786 80.9378 59.4198 81.4988 59.0732C82.06 58.7263 82.7103 58.5183 83.2768 58.177C83.8432 57.838 84.3829 57.4514 84.952 57.1207C85.5239 56.7873 86.0473 56.3764 86.6246 56.0536C87.202 55.731 87.8522 55.5389 88.4322 55.2214" stroke="#F5CC82" stroke-opacity="0.4" stroke-width="1.7008" stroke-miterlimit="10"/>
<path d="M159.997 57.3954C160.58 57.7129 161.028 58.2649 161.608 58.5877C162.188 58.9105 163.043 58.753 163.62 59.0811C164.195 59.4092 164.584 60.0628 165.155 60.3962C165.727 60.7296 166.472 60.7801 167.041 61.119C167.61 61.4577 168.218 61.7403 168.784 62.0846C169.35 62.4285 169.515 63.4155 170.079 63.7624C170.643 64.1116 171.301 64.3037 171.862 64.6585C172.421 65.0131 173.214 65.016 173.77 65.3732C174.325 65.7333 174.576 66.5523 175.129 66.9177C175.682 67.2831 176.211 67.6779 176.761 68.0486C177.312 68.4166 177.862 68.7794 178.41 69.1556C178.955 69.529 179.53 69.8597 180.074 70.2413C180.617 70.6199 181.245 70.8787 181.785 71.2655C182.324 71.6494 182.764 72.167 183.298 72.5565C183.835 72.9457 184.453 73.2206 184.984 73.6154C185.516 74.0102 186.244 74.1488 186.773 74.5462C187.302 74.9437 187.793 75.3945 188.319 75.7972C188.845 76.2 189.277 76.7228 189.797 77.1308C190.318 77.5388 190.955 77.8056 191.473 78.2191C191.991 78.6324 192.271 79.3315 192.787 79.7474C193.299 80.1636 193.911 80.465 194.421 80.8865C194.931 81.3077 195.355 81.8306 195.859 82.2574C196.367 82.6842 197.189 82.7455 197.691 83.1776C198.193 83.6097 198.692 84.0471 199.191 84.4847C199.69 84.9195 200.224 85.3169 200.721 85.7569C201.215 86.1969 201.635 86.7198 202.126 87.1654C202.617 87.6107 203.179 87.9814 203.667 88.4296C204.152 88.8776 204.233 89.7552 204.716 90.2087C205.199 90.662 206.041 90.7422 206.518 91.201C206.996 91.6569 207.026 92.5692 207.5 93.0307C207.975 93.4921 208.42 93.9777 208.89 94.4418C209.359 94.9085 209.907 95.2924 210.374 95.7621C210.838 96.2315 211.407 96.5995 211.868 97.0742C212.33 97.5492 212.659 98.144 213.115 98.6213C213.57 99.0989 214.485 99.1547 214.938 99.6376C215.391 100.121 215.745 100.694 216.193 101.179C216.641 101.665 216.759 102.444 217.204 102.934C217.647 103.425 217.963 104.023 218.402 104.516C218.842 105.009 219.635 105.196 220.07 105.695C220.504 106.194 220.852 106.765 221.281 107.269C221.71 107.77 221.923 108.451 222.349 108.957C222.775 109.464 223.482 109.736 223.903 110.246C224.324 110.755 224.845 111.187 225.26 111.699C225.676 112.211 226.167 112.67 226.579 113.185C226.99 113.702 227.408 114.217 227.815 114.74C228.222 115.26 228.225 116.087 228.627 116.61C229.029 117.135 229.261 117.781 229.658 118.309C230.054 118.837 231.077 118.909 231.468 119.442C231.859 119.973 231.589 120.979 231.975 121.515C232.361 122.051 232.765 122.569 233.149 123.107C233.532 123.646 234.506 123.777 234.88 124.321C235.258 124.862 235.229 125.679 235.598 126.225C235.97 126.772 236.758 127.042 237.125 127.591C237.492 128.14 237.74 128.767 238.102 129.319C238.463 129.871 238.32 130.741 238.676 131.299C239.032 131.853 239.971 132.048 240.319 132.608C240.67 133.168 240.451 134.07 240.797 134.633C241.142 135.196 241.935 135.492 242.275 136.057C242.615 136.623 242.418 137.5 242.75 138.068C243.085 138.636 243.416 139.202 243.743 139.775C244.073 140.346 244.676 140.762 245 141.338C245.324 141.915 245.656 142.48 245.973 143.059C246.293 143.638 246.568 144.235 246.88 144.817C247.193 145.398 247.895 145.777 248.2 146.361C248.505 146.945 248.315 147.78 248.615 148.367C248.915 148.954 249.176 149.556 249.471 150.146C249.763 150.735 250.551 151.087 250.841 151.679C251.129 152.272 250.88 153.115 251.163 153.712C251.449 154.307 251.702 154.912 251.976 155.51C252.251 156.107 252.978 156.505 253.246 157.105C253.517 157.705 253.732 158.332 253.995 158.935C254.259 159.537 254.32 160.228 254.578 160.834C254.834 161.439 255.456 161.898 255.707 162.506C255.959 163.114 256.305 163.691 256.549 164.301C256.795 164.912 257.017 165.536 257.254 166.15C257.49 166.763 257.81 167.353 258.041 167.969C258.273 168.585 258.083 169.358 258.305 169.977C258.532 170.596 259.032 171.119 259.254 171.74C259.471 172.362 259.107 173.181 259.317 173.802C259.532 174.426 259.927 174.984 260.134 175.611C260.339 176.235 260.578 176.851 260.773 177.478C260.973 178.105 261.573 178.611 261.766 179.241C261.959 179.87 262.19 180.492 262.373 181.124C262.561 181.756 262.368 182.495 262.546 183.127C262.724 183.759 263.129 184.335 263.3 184.97C263.468 185.605 263.468 186.288 263.634 186.923C263.798 187.56 264.312 188.115 264.468 188.753C264.624 189.39 264.802 190.03 264.951 190.67C265.102 191.31 265.207 191.964 265.349 192.607C265.493 193.25 265.561 193.911 265.695 194.554C265.829 195.197 265.966 195.845 266.093 196.49C266.22 197.136 265.72 197.899 265.841 198.544C265.961 199.19 265.993 199.848 266.105 200.497C266.22 201.145 266.99 201.684 267.098 202.332C267.202 202.98 267.02 203.676 267.117 204.327C267.215 204.978 267.298 205.629 267.39 206.279C267.48 206.93 267.529 207.586 267.612 208.24" stroke="#F5CC82" stroke-opacity="0.4" stroke-width="1.7008" stroke-miterlimit="10"/>
<path d="M76.2434 35.3021C76.9339 35.3235 77.6219 35.3715 78.3124 35.4008C79.0032 35.4302 79.6939 35.4434 80.3817 35.4781C81.0724 35.5156 81.7632 35.5101 82.451 35.5556C83.139 35.6009 83.8241 35.7128 84.5122 35.7636C85.2 35.817 85.8907 35.8408 86.5788 35.9022C87.2666 35.9636 87.9519 36.0329 88.6397 36.1023C89.3278 36.1716 90.0183 36.2063 90.7036 36.2838C91.3888 36.361 92.0715 36.473 92.7566 36.5584C93.4419 36.6439 94.1354 36.6651 94.8205 36.7585" stroke="#F5CC82" stroke-opacity="0.4" stroke-width="1.7008" stroke-miterlimit="10"/>
<path d="M158.187 29.7244C158.832 29.5805 159.471 29.4098 160.119 29.2765C160.766 29.1405 161.398 28.9296 162.048 28.8044C162.698 28.679 163.389 28.7777 164.039 28.6602C164.689 28.543 165.29 28.1482 165.943 28.0416C166.596 27.9347 167.298 28.1241 167.951 28.0228C168.606 27.9241 169.197 27.4013 169.852 27.3105C170.508 27.22 171.169 27.1452 171.825 27.0652C172.48 26.9853 173.163 27.0999 173.821 27.0279C174.479 26.9559 175.146 26.9745 175.804 26.9105C176.462 26.8464 177.11 26.6384 177.768 26.585C178.426 26.5318 179.109 26.7665 179.77 26.7186C180.43 26.6731 181.081 26.4892 181.742 26.4516C182.403 26.4143 183.056 26.1905 183.717 26.1611C184.378 26.1344 185.052 26.4971 185.713 26.4757C186.374 26.4545 187.032 26.3638 187.693 26.353C188.354 26.3424 189.015 26.3077 189.676 26.305C190.337 26.3024 190.998 26.3424 191.659 26.3503C192.32 26.3585 192.981 26.353 193.642 26.3691C194.303 26.385 194.974 26.1077 195.635 26.1317C196.296 26.1556 196.944 26.4918 197.605 26.5239C198.266 26.5585 198.927 26.5424 199.588 26.585C200.249 26.6278 200.912 26.6011 201.573 26.6517C202.234 26.7025 202.895 26.7345 203.553 26.7959C204.212 26.8573 204.867 26.9612 205.526 27.0306C206.184 27.0999 206.84 27.188 207.495 27.2653C208.153 27.3425 208.849 27.1293 209.505 27.2147C210.161 27.2999 210.762 27.772 211.418 27.868C212.073 27.9641 212.769 27.7855 213.422 27.8894C214.075 27.9934 214.698 28.2842 215.351 28.3962C216.004 28.5083 216.638 28.7002 217.291 28.8229C217.944 28.9457 218.567 29.1831 219.214 29.3138C219.862 29.4445 220.528 29.4871 221.173 29.6257C221.82 29.7646 222.511 29.7033 223.156 29.8525C223.801 29.9993 224.373 30.442 225.015 30.5968C225.657 30.7542 226.334 30.7648 226.976 30.9302C227.615 31.0956 228.249 31.2877 228.886 31.461C229.523 31.6343 230.208 31.6451 230.845 31.8264C231.481 32.0079 232.07 32.3439 232.703 32.5358C233.337 32.7279 234.066 32.6186 234.694 32.8186C235.326 33.0187 235.887 33.4267 236.515 33.6349C237.144 33.8429 237.832 33.8775 238.458 34.0937C239.081 34.3096 239.72 34.4964 240.344 34.7232C240.964 34.9499 241.431 35.5847 242.049 35.8194C242.667 36.0541 243.319 36.1927 243.934 36.4354C244.549 36.6783 245.256 36.7023 245.866 36.9529" stroke="#F5CC82" stroke-opacity="0.4" stroke-width="1.7008" stroke-miterlimit="10"/>
<path d="M59.8029 219.803C59.5573 219.186 59.6356 218.445 59.401 217.826C59.1661 217.207 59.3254 216.447 59.0988 215.823C58.8722 215.199 57.9117 214.833 57.6959 214.207C57.4773 213.58 57.9359 212.732 57.7256 212.102C57.5178 211.473 57.0241 210.937 56.8271 210.304C56.6276 209.672 55.9963 209.168 55.8073 208.533C55.6185 207.898 55.6861 207.186 55.5051 206.549C55.3244 205.911 55.1761 205.263 55.0034 204.623C54.8307 203.983 54.4937 203.383 54.3317 202.74C54.1698 202.097 53.8702 201.484 53.7193 200.838C53.5656 200.193 54.1751 199.376 54.0322 198.731C53.8893 198.085 53.6463 197.464 53.5115 196.813C53.3766 196.165 52.6429 195.631 52.5188 194.983C52.392 194.333 52.5456 193.628 52.4298 192.978C52.3137 192.327 52.311 191.654 52.2032 191.001C52.0951 190.348 51.5773 189.755 51.48 189.099C51.3829 188.446 51.9171 187.699 51.8281 187.043C51.739 186.387 51.4127 185.762 51.3317 185.106C51.2507 184.45 51.0376 183.807 50.9676 183.148C50.8973 182.49 51.3183 181.785 51.2561 181.127C51.1941 180.468 50.7005 179.846 50.6493 179.187C50.5951 178.529 50.4063 177.875 50.3632 177.216C50.32 176.555 50.169 175.899 50.1339 175.237C50.0988 174.576 50.6437 173.888 50.6168 173.226C50.5898 172.565 50.0259 171.919 50.0071 171.257C49.991 170.596 50.2095 169.927 50.2012 169.265C50.1932 168.604 50.5817 167.939 50.5817 167.278C50.5817 166.616 49.891 165.95 49.902 165.285C49.9127 164.624 50.5144 163.973 50.5332 163.312C50.552 162.65 50.1041 161.973 50.1312 161.311C50.1581 160.65 50.1205 159.983 50.1581 159.321C50.1932 158.66 51 158.046 51.0459 157.385C51.0917 156.723 50.7678 156.04 50.819 155.382C50.8732 154.723 50.579 154.029 50.641 153.37C50.7032 152.712 51.418 152.117 51.491 151.458C51.561 150.799 51.2859 150.106 51.3641 149.447C51.4451 148.791 51.3156 148.105 51.4046 147.449C51.4937 146.793 51.4559 146.115 51.5529 145.462C51.65 144.806 52.1437 144.211 52.249 143.557C52.3541 142.904 52.4351 142.248 52.5512 141.594C52.6671 140.941 53.0259 140.335 53.15 139.684C53.2741 139.034 53.5359 138.415 53.6681 137.767C53.8002 137.119 53.6329 136.412 53.7732 135.764C53.9134 135.115 54.2912 134.523 54.4395 133.878C54.588 133.232 54.1239 132.443 54.2805 131.8C54.4395 131.157 54.6393 130.52 54.8066 129.88C54.9737 129.239 55.6105 128.719 55.7859 128.082C55.9612 127.442 55.6024 126.657 55.7859 126.02C55.9693 125.383 56.7327 124.913 56.9244 124.281C57.1159 123.646 57.0107 122.923 57.2129 122.294C57.4127 121.662 58.079 121.182 58.2866 120.552C58.4971 119.923 58.2139 119.133 58.4298 118.506C58.6483 117.879 58.802 117.231 59.0285 116.607C59.2551 115.983 59.7678 115.465 60.0024 114.844C60.2373 114.225 60.4234 113.588 60.6661 112.971C60.909 112.355 61.0168 111.686 61.2705 111.072C61.5215 110.459 62.1473 110 62.4063 109.389C62.6651 108.778 62.4576 107.973 62.7273 107.365C62.9971 106.759 63.7524 106.37 64.0302 105.767C64.3083 105.164 63.8846 104.241 64.1707 103.641C64.4566 103.041 64.7668 102.449 65.061 101.854C65.3549 101.259 65.9646 100.817 66.2668 100.224C66.569 99.6323 67.0141 99.1147 67.3244 98.5279C67.6346 97.9412 67.7129 97.2316 68.0312 96.6503C68.3495 96.0687 69.1185 95.7327 69.4476 95.1537C69.7739 94.5751 69.882 93.8789 70.2163 93.3053C70.551 92.7319 70.5941 91.9876 70.9368 91.4195C71.2793 90.8514 72.2183 90.6408 72.569 90.078C72.9198 89.5152 73.1544 88.8831 73.5132 88.3256C73.872 87.7681 74.1876 87.1865 74.5573 86.6316C74.9241 86.0797 75.3476 85.5674 75.7227 85.0181C76.0976 84.4712 76.451 83.9137 76.8368 83.3697C77.22 82.8281 77.1715 81.98 77.5627 81.4437C77.9537 80.9076 78.79 80.6917 79.1893 80.1609C79.5885 79.6301 79.9124 79.0459 80.3198 78.5231C80.7271 77.9976 81.032 77.3948 81.4476 76.8773C81.8629 76.3573 82.2488 75.8157 82.6722 75.3037C83.0959 74.7915 83.5788 74.3274 84.0076 73.8207C84.4393 73.314 84.8924 72.8284 85.3295 72.3297C85.7666 71.8309 85.8098 70.98 86.2549 70.4865C86.7 69.993 87.6605 69.9584 88.1137 69.4702C88.5671 68.9849 88.6561 68.158 89.1173 67.6778C89.5788 67.1978 90.2827 66.947 90.7522 66.4723" stroke="#F5CC82" stroke-opacity="0.4" stroke-width="1.7008" stroke-miterlimit="10"/>
<path d="M136.826 73.9247C137.088 74.5274 137.098 75.2397 137.36 75.8425C137.622 76.4452 137.962 77.0189 138.223 77.6216C138.485 78.2244 138.229 79.0512 138.49 79.654C138.752 80.257 138.955 80.8891 139.216 81.4919C139.478 82.0946 140.179 82.5135 140.441 83.1162C140.703 83.719 140.759 84.4125 141.024 85.0155C141.285 85.6182 141.326 86.317 141.588 86.9224C141.849 87.5252 142.853 87.816 143.115 88.419C143.376 89.0217 143.562 89.6592 143.824 90.2619C144.086 90.8649 144.323 91.4809 144.585 92.0837C144.847 92.6867 144.593 93.5109 144.855 94.1163C145.116 94.719 145.934 95.0871 146.198 95.6927C146.46 96.2955 146.357 97.0557 146.619 97.6584C146.881 98.2612 146.867 98.9841 147.129 99.5868C147.39 100.19 148.419 100.47 148.68 101.073C148.942 101.676 148.542 102.561 148.807 103.167C149.069 103.769 149.228 104.417 149.492 105.023C149.754 105.626 150.752 105.919 151.014 106.522C151.275 107.125 151.502 107.746 151.764 108.349C152.025 108.952 152.206 109.592 152.468 110.195C152.729 110.797 152.651 111.547 152.916 112.15C153.177 112.753 153.536 113.318 153.798 113.921C154.059 114.524 154.297 115.14 154.559 115.743C154.82 116.346 154.707 117.111 154.969 117.714C155.23 118.317 155.522 118.909 155.783 119.514C156.045 120.117 157.127 120.373 157.389 120.979C157.65 121.582 157.062 122.547 157.324 123.153C157.586 123.755 158.417 124.118 158.678 124.724C158.94 125.329 158.681 126.153 158.943 126.756C159.204 127.359 159.927 127.77 160.189 128.372C160.451 128.975 160.265 129.77 160.529 130.376C160.793 130.981 160.99 131.611 161.252 132.213C161.514 132.816 162.404 133.155 162.668 133.758C162.93 134.361 163.383 134.883 163.648 135.489C163.909 136.092 163.629 136.929 163.89 137.532C164.152 138.135 164.101 138.874 164.363 139.477C164.624 140.079 165.323 140.498 165.587 141.104C165.849 141.707 165.828 142.432 166.089 143.037C166.351 143.643 166.572 144.264 166.834 144.867C167.095 145.47 167.381 146.065 167.643 146.67C167.905 147.273 168.873 147.577 169.135 148.183C169.397 148.786 169.043 149.652 169.305 150.255C169.567 150.858 170.422 151.21 170.684 151.815C170.945 152.418 171.215 153.021 171.48 153.624C171.741 154.227 171.763 154.934 172.024 155.539C172.286 156.142 172.459 156.785 172.72 157.39C172.982 157.996 173.052 158.681 173.314 159.284C173.576 159.887 173.549 160.615 173.813 161.218C174.075 161.821 174.528 162.346 174.79 162.949C175.051 163.552 175.345 164.144 175.607 164.747C175.869 165.35 176.309 165.88 176.57 166.483C176.832 167.086 177.339 167.587 177.603 168.19C177.868 168.793 177.647 169.604 177.908 170.207C178.17 170.809 178.96 171.191 179.222 171.794C179.484 172.397 179.991 172.898 180.253 173.501C180.514 174.104 179.859 175.099 180.12 175.704C180.382 176.307 181.316 176.627 181.577 177.23C181.839 177.832 182.025 178.47 182.29 179.073C182.551 179.676 182.657 180.348 182.918 180.951C183.18 181.553 183.455 182.154 183.717 182.756C183.978 183.359 184.37 183.909 184.631 184.514C184.893 185.12 185.457 185.594 185.719 186.197C185.98 186.8 186.034 187.494 186.296 188.096C186.558 188.699 186.965 189.254 187.227 189.859C187.488 190.465 187.383 191.222 187.648 191.828C187.912 192.433 187.726 193.226 187.987 193.831C188.249 194.437 189.352 194.682 189.614 195.285C189.876 195.887 189.379 196.816 189.644 197.419C189.906 198.021 190.496 198.488 190.758 199.091C191.02 199.694 191.775 200.091 192.037 200.694C192.299 201.297 192.277 202.022 192.539 202.628C192.8 203.231 193.032 203.849 193.297 204.452C193.558 205.055 194.012 205.581 194.273 206.183C194.535 206.786 194.95 207.322 195.215 207.925C195.477 208.528 194.905 209.488 195.169 210.091C195.431 210.694 195.808 211.251 196.07 211.854C196.332 212.457 197.257 212.779 197.519 213.385C197.78 213.988 197.743 214.721 198.004 215.324C198.266 215.927 198.412 216.583 198.673 217.186C198.935 217.789 199.65 218.202 199.912 218.805C200.173 219.408 199.752 220.304 200.014 220.907C200.276 221.51 200.802 222.003 201.064 222.606C201.325 223.209 201.738 223.75 202 224.353C202.261 224.956 201.997 225.785 202.259 226.388C202.52 226.991 203.254 227.397 203.516 227.999C203.778 228.602 204.193 229.143 204.455 229.746C204.717 230.349 205.099 230.904 205.361 231.507C205.623 232.11 205.267 232.976 205.531 233.582C205.796 234.187 206.643 234.54 206.904 235.145C207.166 235.748 207.18 236.457 207.441 237.063C207.703 237.668 207.544 238.45 207.806 239.053C208.067 239.655 209.079 239.943 209.34 240.546C209.602 241.148 209.233 242.024 209.497 242.626C209.759 243.23 210.528 243.62 210.789 244.224C211.051 244.831 211.388 245.401 211.653 246.003C211.917 246.607 211.353 247.561 211.618 248.165C211.879 248.767 212.546 249.202 212.807 249.804C213.069 250.408 213.714 250.851 213.975 251.453C214.237 252.055 213.8 252.958 214.062 253.562" stroke="#F5CC82" stroke-opacity="0.4" stroke-width="1.7008" stroke-miterlimit="10"/>
<path d="M110.66 14.6195C110.961 15.3184 111.196 15.9238 111.428 16.452C111.733 17.1508 111.976 17.7349 112.208 18.2711C112.478 18.8899 112.71 19.4527 112.98 20.0715C113.211 20.605 113.498 21.1651 113.802 21.8613C114.034 22.3921 114.283 22.9975 114.588 23.7017" stroke="#F5CC82" stroke-opacity="0.4" stroke-width="1.7008" stroke-miterlimit="10"/>
<path d="M246.271 35.9554C246.515 36.5714 247.534 36.8969 247.751 37.5184C247.973 38.1426 248.041 38.8226 248.237 39.4521C248.434 40.0818 248.202 40.8338 248.376 41.4686C248.549 42.1063 248.793 42.7169 248.941 43.3573C249.09 44 248.82 44.7149 248.946 45.3629C249.073 46.0112 250.229 46.4779 250.332 47.1288C250.434 47.7795 250.363 48.4677 250.441 49.1239C250.52 49.7774 250.712 50.4336 250.766 51.0898C250.82 51.7458 250.983 52.4128 251.017 53.0714C251.049 53.7276 250.517 54.4132 250.529 55.072C250.539 55.7282 250.029 56.3791 250.015 57.0377C250.002 57.6939 250.666 58.3715 250.632 59.0304C250.595 59.6865 249.759 60.284 249.702 60.9428C249.646 61.5962 250.48 62.3378 250.402 62.9914C250.327 63.6447 249.71 64.2289 249.615 64.8824C249.517 65.5304 250.215 66.3147 250.098 66.9629C249.98 67.6083 249.888 68.2777 249.754 68.9233C249.62 69.5661 248.61 70.0222 248.454 70.6625C248.3 71.2999 247.978 71.8895 247.81 72.5269C247.639 73.159 248.405 74.0578 248.217 74.69C248.027 75.3194 247.89 75.9809 247.685 76.6078C247.48 77.2319 246.788 77.7042 246.568 78.3284C246.346 78.9471 245.878 79.4752 245.639 80.0941C245.405 80.7074 245.227 81.3424 244.973 81.9531C244.722 82.5585 244.012 82.9694 243.746 83.5748C243.481 84.1749 243.681 84.978 243.4 85.5781C243.123 86.1729 242.826 86.7624 242.532 87.3546C242.241 87.9439 241.925 88.5201 241.617 89.107C241.312 89.6883 241.369 90.4673 241.048 91.0486C240.73 91.6249 240.587 92.3102 240.255 92.8839C239.926 93.4519 239.033 93.7054 238.69 94.2709C238.35 94.8337 238.364 95.6179 238.008 96.1778C237.654 96.7327 236.82 96.9888 236.454 97.541C236.092 98.0903 235.612 98.56 235.237 99.1066C234.865 99.648 234.406 100.128 234.02 100.667C233.637 101.203 234.082 102.334 233.686 102.865C233.292 103.393 232.93 103.961 232.523 104.487C232.121 105.009 231.063 105.036 230.651 105.556C230.238 106.071 230.087 106.794 229.663 107.306C229.242 107.816 228.754 108.271 228.322 108.776C227.896 109.275 227.176 109.528 226.739 110.024C226.304 110.517 226.043 111.163 225.598 111.651C225.155 112.136 224.292 112.238 223.836 112.721C223.385 113.201 223.401 114.113 222.94 114.59C222.482 115.063 221.672 115.196 221.203 115.665C220.736 116.132 220.264 116.586 219.789 117.047C219.314 117.506 219.136 118.263 218.651 118.717C218.17 119.17 218.084 120.045 217.593 120.493C217.105 120.939 215.942 120.656 215.446 121.096C214.952 121.536 214.817 122.374 214.315 122.808C213.816 123.24 213.177 123.518 212.67 123.945C212.162 124.369 212.079 125.3 211.563 125.721C211.051 126.14 210.536 126.569 210.015 126.983C209.497 127.394 208.742 127.519 208.213 127.927C207.69 128.332 206.834 128.314 206.303 128.714C205.774 129.111 205.396 129.709 204.86 130.101C204.325 130.493 204.101 131.312 203.559 131.696C203.02 132.08 202.386 132.339 201.84 132.717C201.298 133.093 200.888 133.675 200.335 134.046C199.788 134.416 199.067 134.545 198.511 134.91C197.959 135.273 197.381 135.611 196.82 135.969C196.261 136.326 195.239 135.958 194.672 136.31C194.109 136.66 194.146 137.969 193.577 138.313C193.011 138.658 192.285 138.753 191.71 139.092C191.138 139.428 190.272 139.271 189.692 139.602C189.115 139.932 189.029 141.117 188.446 141.442C187.866 141.765 187.04 141.664 186.452 141.981C185.87 142.296 185.279 142.605 184.688 142.915C184.1 143.224 183.63 143.765 183.037 144.069C182.446 144.371 181.966 144.907 181.367 145.203C180.771 145.499 179.902 145.259 179.3 145.55C178.701 145.838 178.021 145.966 177.415 146.249C176.813 146.529 176.22 146.83 175.612 147.105C175.005 147.38 174.522 147.926 173.91 148.193C173.3 148.463 172.348 147.953 171.73 148.217C171.115 148.479 170.57 148.889 169.95 149.145C169.332 149.399 169.016 150.38 168.393 150.629C167.77 150.876 167.182 151.226 166.553 151.466C165.93 151.706 165.342 152.048 164.721 152.282C164.095 152.514 163.251 152.162 162.625 152.389C161.997 152.616 161.392 152.898 160.764 153.117C160.132 153.336 159.658 154.003 159.026 154.213C158.392 154.424 157.645 154.299 157.011 154.504C156.374 154.709 155.57 154.379 154.936 154.576C154.3 154.773 153.765 155.296 153.129 155.486C152.49 155.675 151.783 155.632 151.143 155.814C150.501 155.995 150.096 157.009 149.454 157.185C148.81 157.361 147.868 156.435 147.226 156.603C146.579 156.771 146.155 157.785 145.51 157.945C144.863 158.105 144.283 158.566 143.638 158.718C142.985 158.87 142.281 158.814 141.631 158.959C140.978 159.103 140.258 158.961 139.607 159.097C138.952 159.233 138.269 159.236 137.616 159.364C136.958 159.492 136.354 159.887 135.698 160.007C135.04 160.127 134.271 159.628 133.613 159.74C132.952 159.852 132.45 160.9 131.792 161.004C131.131 161.108 130.413 160.882 129.755 160.978C129.091 161.074 128.382 160.82 127.721 160.908C127.057 160.996 126.485 161.807 125.824 161.884C125.16 161.965 124.389 161.13 123.725 161.202C123.059 161.274 122.492 162.301 121.829 162.362C121.162 162.423 120.437 161.839 119.773 161.892C119.107 161.946 118.421 161.743 117.758 161.788C117.089 161.834 116.411 161.615 115.748 161.65C115.079 161.684 114.458 162.669 113.792 162.695C113.123 162.722 112.44 162.413 111.777 162.429C111.108 162.445 110.441 162.559 109.775 162.567C109.106 162.575 108.437 161.892 107.77 161.89C107.101 161.887 106.443 161.799 105.777 161.788C105.108 161.778 104.43 162.338 103.767 162.319C103.098 162.298 102.445 162.002 101.779 161.97C101.11 161.938 100.467 161.61 99.8037 161.57C99.1373 161.53 98.4037 162.455 97.74 162.405C97.0734 162.354 96.4124 162.197 95.7488 162.135C95.0824 162.074 94.4188 161.973 93.7578 161.901C93.0941 161.828 92.5115 161.074 91.8532 160.991C91.1895 160.908 90.4315 161.546 89.7732 161.452C89.1122 161.359 88.5241 160.783 87.8685 160.679C87.2076 160.575 86.6195 160.105 85.9639 159.991C85.3056 159.876 84.4639 160.746 83.811 160.62C83.1554 160.492 82.6781 159.505 82.0305 159.367C81.3776 159.228 80.7651 158.953 80.1205 158.804C79.4702 158.654 78.5907 159.439 77.9488 159.278C77.3012 159.116 76.6617 158.897 76.0224 158.724C75.3776 158.548 74.7627 158.262 74.1259 158.076C73.4839 157.889 72.9766 157.265 72.34 157.065C71.7005 156.865 71.0288 156.777 70.3976 156.566C69.7634 156.353 69.1456 156.099 68.5224 155.875C67.8939 155.648 67.4515 154.952 66.8337 154.715C66.2105 154.475 65.5873 154.267 64.9749 154.013C64.3571 153.76 63.3129 154.491 62.7061 154.224C62.0937 153.957 61.9588 152.661 61.3598 152.381C60.7556 152.098 59.8302 152.485 59.2366 152.192C58.6378 151.895 58.3707 150.983 57.7851 150.674C57.1944 150.364 56.3229 150.58 55.7456 150.258C55.1629 149.932 54.8932 149.095 54.3266 148.756C53.7546 148.417 53.2449 148.004 52.6863 147.652C52.1224 147.297 51.1107 147.63 50.5632 147.262C50.01 146.892 49.3115 146.718 48.7717 146.334C48.2295 145.95 48.1271 144.979 47.5983 144.582C47.0695 144.182 46.8159 143.459 46.3005 143.045C45.7827 142.629 44.9085 142.656 44.4068 142.226C43.9022 141.794 43.6622 141.082 43.1739 140.637C42.6829 140.191 42.2512 139.706 41.779 139.247C41.3041 138.785 40.8268 138.348 40.368 137.873C39.9095 137.398 38.7683 137.545 38.3259 137.054C37.8834 136.564 38.0695 135.534 37.6461 135.03C37.2198 134.526 36.1893 134.502 35.7817 133.982C35.3744 133.462 34.959 132.931 34.5705 132.397C34.182 131.864 34.0605 131.136 33.691 130.589C33.3215 130.045 33.0651 129.423 32.7144 128.866C32.3663 128.308 32.2502 127.618 31.9212 127.047C31.5922 126.476 31.6217 125.732 31.3141 125.148C31.0066 124.566 30.4941 124.107 30.208 123.515C29.9222 122.923 29.6146 122.355 29.3502 121.749C29.0859 121.149 28.619 120.637 28.3763 120.024" stroke="#F5CC82" stroke-opacity="0.4" stroke-width="1.7008" stroke-miterlimit="10"/>
<path d="M278.566 77.7791C278.615 78.4379 278.754 79.0861 278.785 79.7421C278.817 80.4036 278.38 81.0677 278.4 81.7266C278.415 82.3881 279.605 83.031 279.605 83.6872C279.605 84.3487 279.417 85.0155 279.4 85.6743C279.383 86.3358 279.5 87.0079 279.468 87.6641C279.439 88.3229 279.529 89.0032 279.483 89.6592C279.439 90.318 278.768 90.9316 278.707 91.5878C278.644 92.244 278.015 92.8359 277.934 93.4894C277.856 94.1456 278.529 94.8926 278.437 95.5433C278.341 96.1968 277.366 96.709 277.259 97.3571C277.151 98.008 278.022 98.8269 277.898 99.4722C277.773 100.12 277.061 100.651 276.922 101.294C276.78 101.94 277.52 102.782 277.366 103.423C277.212 104.063 277.088 104.727 276.917 105.364C276.749 106.002 275.62 106.383 275.437 107.015C275.254 107.648 274.89 108.221 274.693 108.848C274.495 109.477 275.334 110.438 275.124 111.062C274.915 111.686 274.761 112.345 274.537 112.966C274.312 113.585 273.554 114.02 273.317 114.636C273.078 115.252 272.568 115.759 272.32 116.37C272.068 116.981 271.888 117.615 271.622 118.221C271.361 118.826 270.593 119.202 270.317 119.802C270.041 120.403 270.285 121.232 269.998 121.827C269.712 122.422 269.41 123.006 269.11 123.595C268.815 124.182 268.49 124.758 268.18 125.343C267.871 125.924 267.966 126.724 267.646 127.303C267.324 127.879 267.2 128.575 266.871 129.146C266.541 129.717 265.585 129.933 265.244 130.499C264.905 131.064 264.961 131.872 264.61 132.43C264.261 132.987 263.371 133.211 263.007 133.766C262.646 134.318 262.161 134.782 261.788 135.332C261.42 135.879 260.956 136.353 260.576 136.895C260.198 137.436 260.751 138.628 260.361 139.162C259.973 139.695 259.622 140.271 259.227 140.8C258.829 141.328 257.7 141.314 257.295 141.837C256.89 142.36 256.778 143.109 256.366 143.624C255.954 144.139 255.466 144.6 255.044 145.11C254.624 145.619 253.876 145.859 253.446 146.366C253.017 146.87 252.793 147.54 252.356 148.039C251.922 148.537 251.01 148.615 250.568 149.108C250.127 149.599 250.217 150.562 249.771 151.05C249.32 151.535 248.476 151.653 248.017 152.133C247.561 152.613 247.1 153.08 246.639 153.552C246.176 154.024 246.049 154.822 245.58 155.289C245.11 155.755 245.098 156.681 244.622 157.142C244.149 157.604 242.899 157.276 242.416 157.729C241.936 158.185 241.871 159.071 241.385 159.522C240.9 159.97 240.255 160.252 239.764 160.695C239.273 161.138 239.27 162.125 238.774 162.562C238.277 163 237.778 163.448 237.274 163.88C236.772 164.312 235.992 164.432 235.485 164.859C234.978 165.286 234.082 165.253 233.569 165.672C233.057 166.091 232.722 166.726 232.204 167.139C231.687 167.553 231.535 168.428 231.012 168.836C230.489 169.244 229.855 169.519 229.326 169.921C228.797 170.324 228.433 170.945 227.899 171.34C227.367 171.738 226.631 171.874 226.094 172.263C225.557 172.653 224.996 173.015 224.454 173.4C223.911 173.784 222.813 173.389 222.268 173.768C221.723 174.146 221.904 175.56 221.354 175.931C220.803 176.304 220.067 176.411 219.514 176.779C218.961 177.147 218.052 176.982 217.493 177.342C216.935 177.702 216.978 178.988 216.417 179.342C215.856 179.697 214.995 179.598 214.431 179.945C213.865 180.294 213.293 180.636 212.724 180.98C212.154 181.324 211.733 181.919 211.161 182.255C210.587 182.594 210.158 183.183 209.583 183.514C209.006 183.845 208.091 183.602 207.511 183.927C206.929 184.253 206.251 184.408 205.669 184.725C205.083 185.045 204.511 185.384 203.926 185.699C203.338 186.013 202.909 186.619 202.318 186.925C201.727 187.232 200.699 186.704 200.106 187.005C199.512 187.307 199.008 187.771 198.412 188.064C197.813 188.36 197.608 189.438 197.009 189.726C196.407 190.014 195.857 190.412 195.252 190.694C194.648 190.977 194.092 191.372 193.488 191.647C192.881 191.924 191.983 191.567 191.376 191.836C190.766 192.105 190.186 192.439 189.576 192.7C188.964 192.964 188.559 193.711 187.947 193.967C187.329 194.226 186.557 194.116 185.939 194.367C185.319 194.618 184.469 194.287 183.849 194.53C183.228 194.773 182.751 195.37 182.13 195.605C181.507 195.842 180.792 195.824 180.169 196.05C179.543 196.28 179.249 197.411 178.626 197.632C177.997 197.853 176.948 196.877 176.322 197.091C175.69 197.304 175.375 198.443 174.744 198.648C174.11 198.854 173.581 199.39 172.95 199.587C172.313 199.787 171.601 199.758 170.967 199.947C170.333 200.137 169.604 200.014 168.973 200.193C168.336 200.374 167.654 200.411 167.006 200.587C166.367 200.763 165.8 201.23 165.153 201.398C164.511 201.566 163.688 201.054 163.038 201.214C162.393 201.374 161.999 202.564 161.349 202.718C160.701 202.873 159.962 202.663 159.307 202.809C158.657 202.956 157.92 202.718 157.264 202.86C156.614 202.999 156.126 203.935 155.47 204.068C154.818 204.202 153.957 203.332 153.301 203.457C152.646 203.583 152.19 204.764 151.529 204.884C150.873 205.002 150.083 204.412 149.422 204.524C148.764 204.636 148.06 204.466 147.396 204.572C146.738 204.676 146.033 204.492 145.372 204.591C144.711 204.69 144.202 205.834 143.538 205.925C142.877 206.015 142.16 205.735 141.493 205.818C140.829 205.901 140.177 206.093 139.51 206.17C138.847 206.247 138.097 205.559 137.43 205.628C136.764 205.698 136.095 205.671 135.426 205.735C134.759 205.797 134.152 206.496 133.483 206.551C132.817 206.605 132.126 206.354 131.457 206.402C130.788 206.45 130.103 206.165 129.434 206.205C128.765 206.245 128.155 207.365 127.486 207.397C126.817 207.429 126.137 207.344 125.465 207.368C124.796 207.392 124.119 207.373 123.447 207.389C122.776 207.405 122.093 206.658 121.421 206.666C120.75 206.674 120.086 207.496 119.414 207.496C118.742 207.496 118.073 206.954 117.404 206.946C116.732 206.938 116.074 206.519 115.402 206.503C114.731 206.488 114.027 207.592 113.355 207.565C112.683 207.541 112.054 206.541 111.385 206.506C110.714 206.474 110.061 206.285 109.392 206.242C108.723 206.199 107.975 207.232 107.306 207.181C106.637 207.13 105.965 207.018 105.299 206.96C104.63 206.898 103.969 206.711 103.303 206.642C102.634 206.573 102.024 205.999 101.358 205.922C100.691 205.842 100.009 205.898 99.3451 205.81C98.6788 205.722 98.0205 205.589 97.3595 205.49C96.6959 205.391 96.1239 204.743 95.4629 204.634C94.7993 204.524 94.141 204.452 93.4827 204.332C92.8217 204.212 91.9341 205.269 91.2785 205.141C90.6202 205.01 90.2183 203.652 89.5654 203.511C88.9098 203.369 88.0737 204.039 87.4207 203.887C86.7678 203.735 86.301 202.833 85.651 202.671C85.0007 202.508 84.1805 202.993 83.5358 202.82C82.8856 202.646 82.4244 201.833 81.7795 201.646C81.1349 201.46 80.5278 201.18 79.8883 200.982C79.2463 200.785 78.3237 201.46 77.6871 201.249C77.0502 201.038 76.3137 201.086 75.6824 200.862C75.0485 200.641 74.6951 199.657 74.0666 199.422C73.4378 199.187 72.99 198.517 72.3695 198.272C71.7463 198.024 70.8859 198.366 70.2681 198.104C69.6502 197.843 69.2132 197.194 68.6007 196.92C67.9883 196.645 67.419 196.312 66.8146 196.024C66.2105 195.735 65.6061 195.474 65.0073 195.173C64.4083 194.871 63.3293 195.48 62.7383 195.165C62.1476 194.85 62.0046 193.735 61.4217 193.404C60.839 193.076 59.8139 193.487 59.2393 193.146C58.6646 192.801 58.0793 192.455 57.5154 192.097C56.9515 191.74 56.5793 191.076 56.0261 190.702C55.4705 190.332 54.9956 189.841 54.4507 189.454C53.9056 189.067 53.5388 188.449 53.002 188.048C52.4678 187.648 52.2115 186.915 51.6881 186.501C51.1646 186.088 50.4795 185.89 49.9668 185.464C49.4571 185.037 48.9283 184.642 48.429 184.202C47.93 183.762 47.2637 183.509 46.7781 183.053C46.2924 182.599 45.5559 182.394 45.0812 181.924C44.609 181.457 44.6576 180.489 44.1963 180.006C43.7376 179.526 42.7071 179.564 42.262 179.068C41.8168 178.574 41.0937 178.297 40.6622 177.79C40.2305 177.283 40.8644 175.915 40.4463 175.395C40.0307 174.877 38.8356 174.957 38.4337 174.424C38.0344 173.896 37.7268 173.29 37.341 172.746C36.9554 172.207 36.772 171.527 36.3995 170.972C36.03 170.423 35.6522 169.873 35.2961 169.311C34.9427 168.75 34.4329 168.278 34.0902 167.702C33.7529 167.134 33.03 166.766 32.7037 166.182C32.3798 165.603 32.3339 164.861 32.0237 164.267C31.7161 163.68 31.2332 163.162 30.9393 162.56" stroke="#F5CC82" stroke-opacity="0.4" stroke-width="1.7008" stroke-miterlimit="10"/>
<path d="M291.685 126.844C291.515 127.484 290.963 128.023 290.78 128.658C290.595 129.295 291.146 130.151 290.951 130.784C290.759 131.418 289.69 131.784 289.485 132.413C289.281 133.043 289.068 133.667 288.854 134.294C288.637 134.921 288.629 135.617 288.402 136.241C288.176 136.865 288.373 137.644 288.137 138.266C287.898 138.884 287.856 139.586 287.607 140.202C287.361 140.818 287.105 141.44 286.849 142.053C286.593 142.664 285.917 143.109 285.654 143.718C285.388 144.326 285.261 144.998 284.985 145.601C284.71 146.203 284.32 146.761 284.032 147.358C283.746 147.959 283.527 148.593 283.234 149.188C282.939 149.783 282.239 150.178 281.934 150.767C281.632 151.357 281.78 152.181 281.466 152.768C281.154 153.352 280.012 153.496 279.693 154.077C279.371 154.659 278.963 155.181 278.632 155.758C278.302 156.334 278.985 157.483 278.646 158.057C278.31 158.628 278.002 159.228 277.659 159.793C277.312 160.359 276.022 160.354 275.666 160.916C275.312 161.476 275.988 162.685 275.624 163.242C275.261 163.8 273.866 163.69 273.495 164.24C273.124 164.792 273.01 165.504 272.632 166.051C272.254 166.598 272.483 167.561 272.098 168.105C271.712 168.646 271.449 169.284 271.056 169.82C270.666 170.356 270.066 170.751 269.666 171.281C269.268 171.812 268.329 171.94 267.922 172.468C267.515 172.994 266.924 173.373 266.51 173.895C266.098 174.415 266.427 175.523 266.005 176.037C265.585 176.552 265.144 177.059 264.717 177.568C264.29 178.078 263.941 178.662 263.507 179.166C263.073 179.67 262.298 179.889 261.859 180.388C261.42 180.886 260.944 181.356 260.498 181.849C260.051 182.343 259.82 183.034 259.366 183.522C258.912 184.01 257.724 183.818 257.266 184.301C256.805 184.783 257.1 185.973 256.637 186.448C256.173 186.925 255.861 187.557 255.39 188.029C254.92 188.499 254.456 188.99 253.978 189.454C253.505 189.918 252.68 190.043 252.198 190.502C251.715 190.961 251.229 191.417 250.741 191.873C250.254 192.327 249.776 192.793 249.283 193.241C248.788 193.689 248.439 194.298 247.941 194.74C247.444 195.183 246.324 194.933 245.824 195.37C245.322 195.807 245.007 196.453 244.502 196.885C243.995 197.314 244.022 198.373 243.506 198.797C242.993 199.222 242.349 199.499 241.83 199.918C241.312 200.336 240.409 200.288 239.885 200.702C239.362 201.115 239.033 201.769 238.507 202.177C237.981 202.585 237.282 202.774 236.75 203.177C236.219 203.58 235.504 203.737 234.967 204.132C234.43 204.529 234.055 205.132 233.513 205.522C232.973 205.911 232.571 206.493 232.027 206.879C231.482 207.264 230.664 207.264 230.114 207.642C229.566 208.021 229.493 209.085 228.94 209.456C228.387 209.83 227.386 209.547 226.831 209.915C226.272 210.283 226.259 211.467 225.698 211.827C225.136 212.187 224.009 211.681 223.442 212.035C222.876 212.39 222.6 213.198 222.031 213.548C221.462 213.897 220.688 213.916 220.116 214.257C219.544 214.601 219.358 215.588 218.78 215.924C218.203 216.26 217.089 215.684 216.509 216.015C215.929 216.346 215.902 217.634 215.316 217.959C214.734 218.285 213.66 217.743 213.074 218.061C212.486 218.378 212.114 219.082 211.523 219.394C210.932 219.706 210.614 220.536 210.02 220.843C209.427 221.15 208.399 220.624 207.8 220.925C207.204 221.227 206.683 221.672 206.082 221.966C205.48 222.259 204.7 222.176 204.096 222.465C203.492 222.752 203.014 223.289 202.407 223.571C201.8 223.852 201.056 223.825 200.446 224.1C199.836 224.374 199.529 225.308 198.916 225.577C198.304 225.847 197.473 225.615 196.858 225.876C196.243 226.137 195.714 226.591 195.093 226.847C194.476 227.103 193.739 227.068 193.119 227.316C192.498 227.564 191.851 227.732 191.228 227.975C190.604 228.218 190.146 228.874 189.52 229.109C188.894 229.344 188.106 229.141 187.478 229.37C186.849 229.6 186.398 230.304 185.767 230.525C185.136 230.746 184.34 230.496 183.709 230.712C183.075 230.928 182.724 231.963 182.087 232.171C181.45 232.379 180.628 232.016 179.988 232.219C179.349 232.422 178.656 232.427 178.014 232.622C177.371 232.816 176.778 233.142 176.136 233.331C175.494 233.52 174.965 234.091 174.32 234.273C173.675 234.454 173.103 234.9 172.456 235.073C171.809 235.246 171.112 235.238 170.462 235.404C169.812 235.572 169.078 235.398 168.428 235.558C167.778 235.718 167.279 236.5 166.626 236.652C165.973 236.804 165.193 236.415 164.541 236.559C163.885 236.702 163.372 237.495 162.717 237.631C162.061 237.77 161.338 237.607 160.683 237.738C160.024 237.868 159.229 237.271 158.57 237.393C157.912 237.516 157.343 238.103 156.682 238.218C156.021 238.332 155.444 238.932 154.783 239.039C154.122 239.146 153.353 238.591 152.692 238.69C152.028 238.789 151.316 238.503 150.652 238.596C149.989 238.687 149.484 239.959 148.82 240.045C148.154 240.127 147.366 239.207 146.703 239.285C146.036 239.359 145.446 240.109 144.779 240.178C144.113 240.245 143.471 240.618 142.804 240.677C142.135 240.736 141.458 240.77 140.792 240.821C140.123 240.871 139.41 240.365 138.741 240.408C138.072 240.45 137.392 240.312 136.723 240.346C136.054 240.381 135.383 240.282 134.711 240.306C134.042 240.333 133.381 240.546 132.709 240.562C132.037 240.578 131.376 241.083 130.707 241.09C130.036 241.097 129.361 241.172 128.692 241.172C128.02 241.172 127.349 240.871 126.68 240.862C126.008 240.85 125.358 240.146 124.686 240.13C124.017 240.112 123.323 240.835 122.652 240.809C121.983 240.78 121.335 240.28 120.666 240.242C119.997 240.205 119.298 240.65 118.629 240.605C117.96 240.559 117.305 240.33 116.638 240.277C115.969 240.221 115.357 239.602 114.69 239.538C114.024 239.474 113.288 240.095 112.621 240.021C111.955 239.946 111.388 239.074 110.725 238.991C110.061 238.908 109.335 239.314 108.671 239.221C108.008 239.127 107.306 239.282 106.645 239.178C105.985 239.074 105.442 238.274 104.781 238.162C104.12 238.05 103.362 238.508 102.704 238.386C102.046 238.263 101.43 237.932 100.775 237.799C100.12 237.666 99.4154 237.756 98.7624 237.612C98.1068 237.471 97.4027 237.545 96.75 237.393C96.0971 237.241 95.5546 236.652 94.9046 236.489C94.2544 236.326 93.4639 236.697 92.8166 236.527C92.169 236.353 91.4783 236.313 90.8363 236.132C90.1915 235.95 89.8246 234.838 89.1851 234.646C88.5459 234.454 87.7878 234.638 87.151 234.435C86.5144 234.233 85.8966 233.974 85.2627 233.76C84.6285 233.547 84.1242 232.979 83.4956 232.755C82.8642 232.531 81.9524 233.075 81.3237 232.843C80.6978 232.611 80.099 232.293 79.4759 232.048C78.8527 231.805 78.1215 231.811 77.501 231.557C76.8832 231.304 76.7402 229.949 76.1251 229.685C75.51 229.421 74.7493 229.506 74.1395 229.231C73.5298 228.957 72.7798 228.989 72.1754 228.706C71.5712 228.421 71.2339 227.602 70.6351 227.306C70.0361 227.012 69.3049 226.986 68.7115 226.679C68.1154 226.375 67.1603 226.738 66.5695 226.423" stroke="#F5CC82" stroke-opacity="0.4" stroke-width="1.7008" stroke-miterlimit="10"/>
<path d="M286.593 170.612C286.28 171.196 285.951 171.778 285.629 172.359C285.307 172.941 284.266 173.125 283.937 173.701C283.61 174.277 283.498 174.97 283.163 175.544C282.827 176.115 283.154 177.077 282.81 177.646C282.466 178.214 281.456 178.382 281.102 178.945C280.749 179.508 280.798 180.318 280.439 180.876C280.081 181.433 279.488 181.847 279.122 182.399C278.756 182.951 278.807 183.783 278.429 184.333C278.054 184.879 276.856 184.871 276.476 185.413C276.093 185.954 276.493 187.043 276.102 187.581C275.715 188.12 275.388 188.71 274.993 189.243C274.595 189.777 273.527 189.817 273.124 190.345C272.722 190.873 272.449 191.495 272.037 192.017C271.627 192.54 270.927 192.831 270.51 193.348C270.093 193.866 270.383 194.946 269.961 195.458C269.537 195.97 269.02 196.413 268.59 196.92C268.161 197.426 267.156 197.453 266.722 197.955C266.285 198.456 266.056 199.131 265.615 199.627C265.171 200.123 265.246 201.081 264.8 201.571C264.351 202.062 263.454 202.15 262.998 202.633C262.541 203.119 262.051 203.567 261.588 204.047C261.127 204.527 260.698 205.034 260.232 205.506C259.766 205.981 258.976 206.133 258.502 206.599C258.032 207.066 257.949 207.922 257.473 208.384C256.995 208.845 256.144 208.925 255.661 209.384C255.178 209.84 254.89 210.496 254.402 210.947C253.915 211.398 253.466 211.891 252.968 212.337C252.476 212.782 252.054 213.308 251.554 213.748C251.054 214.188 250.824 214.937 250.32 215.37C249.815 215.804 249.078 215.975 248.568 216.402C248.059 216.829 247.673 217.405 247.159 217.829C246.644 218.25 245.722 218.184 245.205 218.599C244.685 219.016 244.693 220.085 244.166 220.493C243.64 220.904 243.166 221.387 242.637 221.79C242.108 222.192 241.509 222.518 240.975 222.915C240.441 223.313 239.909 223.726 239.37 224.118C238.83 224.51 237.813 224.252 237.271 224.638C236.726 225.025 236.475 225.815 235.927 226.193C235.38 226.572 234.465 226.428 233.912 226.802C233.359 227.175 233.378 228.386 232.822 228.754C232.266 229.122 231.616 229.36 231.055 229.722C230.494 230.082 229.701 230.09 229.137 230.445C228.57 230.8 227.745 230.733 227.176 231.08C226.606 231.427 226.471 232.478 225.897 232.819C225.322 233.16 224.378 232.883 223.801 233.219C223.223 233.555 223.045 234.572 222.465 234.9C221.885 235.228 221.019 235.059 220.434 235.382C219.848 235.705 219.417 236.303 218.829 236.617C218.24 236.932 217.528 237.02 216.937 237.329C216.344 237.639 215.853 238.138 215.257 238.439C214.66 238.741 214.213 239.338 213.614 239.634C213.015 239.93 212.179 239.751 211.574 240.039C210.972 240.328 210.314 240.496 209.707 240.777C209.1 241.059 208.482 241.309 207.873 241.584C207.263 241.858 206.858 242.585 206.246 242.85C205.633 243.117 205.075 243.521 204.46 243.779C203.845 244.041 203.238 244.33 202.617 244.585C202 244.838 201.258 244.797 200.634 245.045C200.014 245.291 199.323 245.365 198.698 245.606C198.074 245.844 197.475 246.152 196.85 246.386C196.221 246.617 195.679 247.077 195.047 247.301C194.416 247.525 193.717 247.556 193.083 247.772C192.449 247.989 191.694 247.842 191.06 248.049C190.426 248.256 189.962 248.988 189.322 249.188C188.686 249.39 188.057 249.631 187.415 249.823C186.776 250.018 185.983 249.708 185.34 249.896C184.699 250.081 184.189 250.721 183.544 250.902C182.899 251.08 182.098 250.69 181.45 250.861C180.803 251.032 180.36 251.983 179.713 252.146C179.063 252.31 178.245 251.797 177.595 251.951C176.945 252.105 176.451 252.936 175.798 253.083C175.146 253.23 174.425 253.092 173.77 253.232C173.114 253.372 172.394 253.191 171.735 253.323C171.08 253.453 170.543 254.214 169.885 254.337C169.227 254.46 168.431 253.831 167.77 253.944C167.109 254.06 166.453 254.166 165.792 254.272C165.131 254.375 164.5 254.664 163.839 254.761C163.175 254.857 162.566 255.329 161.902 255.418C161.238 255.504 160.591 255.767 159.927 255.846C159.263 255.926 158.589 256 157.925 256.072C157.259 256.142 156.552 255.841 155.886 255.902C155.22 255.964 154.561 256.152 153.895 256.207C153.229 256.26 152.549 256.21 151.882 256.251C151.213 256.294 150.547 256.4 149.878 256.436C149.209 256.47 148.523 256.125 147.854 256.149C147.185 256.176 146.53 256.628 145.861 256.643C145.192 256.66 144.509 255.889 143.84 255.897C143.171 255.904 142.507 255.822 141.838 255.82C141.169 255.817 140.492 256.79 139.823 256.778C139.154 256.766 138.477 256.787 137.808 256.766C137.139 256.744 136.507 255.8 135.838 255.772C135.169 255.743 134.446 256.727 133.777 256.686C133.108 256.645 132.512 255.579 131.843 255.528C131.177 255.478 130.491 255.68 129.825 255.622C129.159 255.562 128.43 256.118 127.764 256.048C127.097 255.979 126.412 256.039 125.746 255.957C125.082 255.877 124.437 255.593 123.774 255.504C123.11 255.418 122.527 254.768 121.866 254.669C121.205 254.57 120.58 254.279 119.919 254.171C119.258 254.062 118.462 254.736 117.803 254.618C117.145 254.501 116.484 254.363 115.829 254.236C115.173 254.106 114.49 254.067 113.838 253.928C113.185 253.79 112.607 253.285 111.955 253.138C111.302 252.991 110.66 252.806 110.01 252.645C109.359 252.488 108.647 252.565 108 252.397C107.352 252.228 106.931 251.248 106.286 251.068C105.642 250.89 104.757 251.545 104.115 251.357C103.473 251.169 102.771 251.155 102.132 250.957C101.492 250.76 100.842 250.57 100.206 250.363C99.5715 250.153 99.0644 249.556 98.4305 249.337C97.799 249.118 97.1651 248.892 96.5339 248.666" stroke="#F5CC82" stroke-opacity="0.4" stroke-width="1.7008" stroke-miterlimit="10"/>
<path d="M207.91 29.7914C208.161 30.3994 208.229 31.0744 208.436 31.6904C208.647 32.3119 209.027 32.8853 209.194 33.5148C209.364 34.1472 209.858 34.7258 209.988 35.3659C210.117 36.0062 209.437 36.7849 209.526 37.4332C209.613 38.0788 210.476 38.6548 210.524 39.3084C210.573 39.959 210.597 40.6393 210.605 41.2955C210.613 41.9464 210.341 42.6158 210.311 43.272C210.284 43.92 210.017 44.563 209.952 45.2163C209.89 45.8619 210.271 46.5795 210.174 47.2301C210.077 47.8731 209.06 48.3613 208.93 49.0066C208.803 49.644 209.165 50.383 209.006 51.0231C208.849 51.6526 208.347 52.1913 208.161 52.8237C207.975 53.445 208.501 54.3012 208.288 54.9254C208.078 55.539 207.155 55.9097 206.918 56.5259C206.683 57.1313 206.464 57.7394 206.202 58.345C205.944 58.9425 205.952 59.6598 205.668 60.2546C205.388 60.8415 204.757 61.2577 204.452 61.8443C204.152 62.4232 204.166 63.1646 203.845 63.7409C203.526 64.309 203.049 64.7919 202.709 65.3573C202.374 65.9148 202.056 66.4856 201.697 67.0404C201.347 67.5897 200.939 68.1046 200.57 68.6487C200.203 69.1876 199.838 69.729 199.453 70.2651C199.072 70.7932 198.476 71.1666 198.077 71.6921C197.683 72.2096 197.405 72.8097 196.995 73.3246C196.588 73.8313 196.674 74.741 196.25 75.245C195.832 75.7438 195.298 76.1627 194.864 76.6559C194.432 77.1441 193.515 77.2081 193.067 77.6936C192.624 78.1736 192.241 78.7017 191.783 79.1767C191.33 79.6487 191.373 80.5983 190.906 81.0651C190.445 81.5265 189.363 81.3744 188.885 81.8332C188.413 82.2867 188.289 83.0975 187.803 83.5483C187.323 83.991 186.495 84.0603 186.001 84.5006C185.513 84.9353 185.302 85.6823 184.801 86.1144C184.302 86.5412 183.849 87.0212 183.339 87.4427C182.831 87.8586 182.133 88.0428 181.615 88.4561C181.102 88.8643 181.027 89.8299 180.501 90.2326C179.982 90.63 179.014 90.454 178.485 90.8462C177.959 91.2356 177.768 92.0784 177.231 92.4626C176.699 92.8439 175.874 92.8253 175.329 93.2013C174.789 93.5747 174.109 93.7427 173.559 94.1081C173.014 94.4735 172.51 94.895 171.954 95.2525C171.401 95.61 171.015 96.218 170.451 96.5675C169.893 96.9142 169.369 97.3251 168.803 97.6664C168.239 98.0051 167.802 98.5652 167.23 98.8986C166.663 99.2294 166.14 99.6509 165.565 99.9737C164.993 100.296 164.19 100.222 163.61 100.536C163.029 100.851 162.358 100.99 161.77 101.297C161.184 101.603 160.874 102.433 160.283 102.734C159.695 103.03 159.012 103.161 158.416 103.452C157.825 103.74 157.143 103.855 156.544 104.137C155.945 104.417 155.265 104.521 154.658 104.796C154.054 105.068 153.371 105.162 152.761 105.428C152.154 105.692 151.539 105.924 150.924 106.181C150.309 106.436 149.964 107.336 149.343 107.583C148.726 107.832 148.143 108.17 147.528 108.408C146.907 108.648 146.047 108.258 145.426 108.485C144.803 108.714 144.218 109.032 143.594 109.253C142.968 109.475 142.464 110.037 141.838 110.248C141.21 110.461 140.664 110.934 140.036 111.136C139.405 111.339 138.62 111.078 137.988 111.272C137.351 111.467 136.807 111.958 136.173 112.142C135.533 112.326 134.745 111.982 134.109 112.155C133.467 112.331 132.906 112.779 132.266 112.942C131.621 113.107 131.05 113.547 130.407 113.702C129.763 113.86 128.98 113.449 128.338 113.593C127.691 113.74 127.016 113.737 126.369 113.873C125.719 114.009 125.206 114.798 124.559 114.924C123.906 115.052 123.274 115.297 122.624 115.415C121.969 115.532 121.316 115.673 120.666 115.78C120.01 115.887 119.225 115.148 118.572 115.244C117.914 115.34 117.363 116.185 116.71 116.268C116.052 116.354 115.383 116.375 114.728 116.45C114.067 116.522 113.419 116.748 112.764 116.81C112.103 116.871 111.404 116.522 110.746 116.572C110.082 116.623 109.418 116.604 108.76 116.642C108.096 116.679 107.446 116.954 106.788 116.98C106.124 117.007 105.463 117.183 104.805 117.197C104.141 117.21 103.472 117.327 102.814 117.327C102.15 117.327 101.49 116.722 100.834 116.711C100.17 116.698 99.5066 116.788 98.851 116.762C98.1873 116.735 97.5454 116.42 96.8898 116.38C96.2261 116.34 95.5083 117.068 94.8556 117.015C94.1893 116.959 93.601 116.111 92.9454 116.042C92.2817 115.972 91.54 116.567 90.8871 116.482C90.2261 116.396 89.638 115.809 88.9851 115.708C88.3268 115.607 87.5768 116.025 86.9293 115.908C86.2739 115.791 85.7341 115.084 85.0922 114.948C84.4393 114.812 83.6461 115.297 83.0068 115.145C82.3593 114.991 81.9034 114.102 81.2693 113.932C80.6273 113.761 79.8746 113.988 79.2459 113.798C78.6093 113.606 77.9968 113.345 77.3763 113.137C76.7451 112.926 76.1812 112.555 75.5661 112.326C74.9429 112.094 74.2227 112.118 73.6183 111.867C73.0059 111.614 72.4529 111.227 71.8593 110.955C71.2551 110.68 70.8181 110.091 70.2354 109.795C69.6444 109.496 68.9241 109.453 68.3549 109.133C67.7749 108.81 67.462 108.077 66.9061 107.736C66.3422 107.386 65.7327 107.149 65.1902 106.778C64.6427 106.404 63.7444 106.517 63.2237 106.124C62.6976 105.724 62.1822 105.295 61.6832 104.876C61.1788 104.452 60.6849 104.001 60.2076 103.553C59.7273 103.102 59.4981 102.403 59.0473 101.931C58.5942 101.457 58.3783 100.79 57.9549 100.294C57.5312 99.7922 56.4576 99.7948 56.0663 99.2722C55.6724 98.7494 55.9288 97.773 55.57 97.229C55.2112 96.6821 54.7605 96.2101 54.4368 95.642C54.1132 95.0765 54.0995 94.3722 53.8137 93.7829C53.5276 93.1987 52.632 92.8894 52.3839 92.2837C52.1329 91.6757 52.0654 90.9954 51.8551 90.3768C51.6446 89.7552 51.14 89.2083 50.9702 88.5762C50.8002 87.9441 51.0134 87.2133 50.8839 86.5703C50.7544 85.9302 50.3956 85.3195 50.3093 84.6686C50.2229 84.023 50.7866 83.311 50.7381 82.6574C50.6895 82.0065 50.1661 81.3852 50.1581 80.7291C50.15 80.0782 50.32 79.4246 50.3498 78.7684C50.3766 78.1204 50.061 77.4348 50.1229 76.7813C50.1851 76.1359 50.819 75.5517 50.9161 74.9008C51.0134 74.2581 51.0593 73.6125 51.1888 72.9671C51.3154 72.3297 51.2263 71.6442 51.3883 71.0041C51.5449 70.3744 51.9305 69.801 52.1195 69.1715C52.3056 68.55 51.9415 67.7445 52.1571 67.1203C52.3676 66.5068 52.74 65.9281 52.98 65.3145C53.2146 64.7091 53.9134 64.2823 54.1751 63.6742C54.4341 63.0768 54.5476 62.4153 54.8334 61.8205C55.1139 61.2336 55.6617 60.7775 55.9639 60.1906C56.2632 59.6119 56.4198 58.9636 56.7434 58.3876C57.0617 57.8195 57.3046 57.2086 57.6473 56.6431C57.9817 56.0856 58.3729 55.5575 58.729 55.0027C59.0798 54.4533 59.4278 53.9011 59.8 53.3545C60.1671 52.8155 60.1698 52.018 60.5554 51.4819C60.9359 50.9538 61.2515 50.359 61.6507 49.8335C62.0446 49.3159 62.5788 48.8894 62.9917 48.3771C63.399 47.8704 64.3649 47.8064 64.7883 47.3023C65.2066 46.8033 65.471 46.1765 65.9054 45.6833C66.3368 45.1951 66.3693 44.3468 66.8144 43.8613C67.2568 43.3813 67.7424 42.9278 68.1983 42.4531C68.6517 41.9811 69.1237 41.517 69.5905 41.05C70.0517 40.5885 71.0068 40.6152 71.4844 40.1591C71.9566 39.7058 72.2829 39.1057 72.7685 38.6575C73.2488 38.2148 73.2973 37.2945 73.791 36.8543C74.2793 36.4195 75.21 36.4677 75.7117 36.0382C76.211 35.6114 76.4537 34.8859 76.9637 34.4644C77.4707 34.0485 78.1263 33.8056 78.6444 33.3923C79.1568 32.984 79.4132 32.2426 79.9393 31.8399C80.4573 31.4425 81.4905 31.7039 82.0193 31.3117C82.5454 30.9223 82.5966 29.8901 83.1334 29.5059C83.6649 29.1246 84.1668 28.6817 84.7117 28.3083C85.2512 27.935 86.1956 28.135 86.7432 27.7696C87.2881 27.4042 87.7602 26.9292 88.3161 26.5718C88.869 26.2146 89.5895 26.1238 90.1505 25.7716C90.709 25.425 90.8654 24.4328 91.4346 24.0912C91.9985 23.7525 92.619 23.4938 93.1937 23.1604C93.7602 22.8296 94.6478 23.043 95.2224 22.7203C95.7944 22.3975 96.2556 21.8801 96.8385 21.5653C97.4185 21.2506 97.7207 20.4237 98.3088 20.117C98.8941 19.8103 99.7171 19.9543 100.31 19.6555C100.899 19.3595 101.511 19.1007 102.107 18.81C102.698 18.5219 103.278 18.2045 103.877 17.9218C104.476 17.6417 105.237 17.7084 105.841 17.4364C106.445 17.1643 106.858 16.4708 107.468 16.2067C108.075 15.9427 108.86 16.0893 109.475 15.8333C110.09 15.5772 110.611 15.1051 111.231 14.857C111.849 14.609 112.443 14.3182 113.06 14.0809C113.681 13.8408 114.266 13.5181 114.884 13.2913C115.507 13.0619 116.012 12.5072 116.635 12.2858C117.261 12.0644 117.987 12.1204 118.612 11.9097C119.241 11.6963 119.821 11.3309 120.45 11.1308C121.081 10.9281 121.874 11.2322 122.508 11.0401C123.145 10.8454 123.574 9.97855 124.208 9.7945C124.847 9.61044 125.468 9.35172 126.104 9.17836C126.746 9.0023 127.413 8.91162 128.052 8.74624C128.697 8.58087 129.339 8.40216 129.981 8.24745C130.626 8.09007 131.43 8.59421 132.075 8.45016C132.722 8.30347 133.278 7.74866 133.923 7.61263C134.573 7.47661 135.328 7.86604 135.976 7.74067C136.629 7.61263 137.12 6.65241 137.77 6.53504C138.425 6.41769 139.105 6.43367 139.755 6.32699C140.411 6.2203 141.123 6.46836 141.776 6.37234C142.434 6.27632 143.144 6.5964 143.797 6.51371C144.455 6.42835 145.027 5.66015 145.682 5.58816C146.343 5.51613 147.064 6.04691 147.719 5.98558C148.38 5.92422 148.982 5.2014 149.64 5.1507C150.304 5.10003 150.997 5.53479 151.655 5.49478C152.319 5.45745 152.967 5.15604 153.625 5.12937C154.289 5.1027 154.958 5.29742 155.616 5.28408C156.28 5.27075 156.94 5.07868 157.599 5.07868C158.262 5.07868 158.931 4.80395 159.59 4.81464C160.253 4.82797 160.906 5.2894 161.562 5.3134C162.225 5.3401 162.878 5.47877 163.534 5.51881C164.198 5.55881 164.85 5.63081 165.503 5.68418C166.17 5.74019 166.871 5.38275 167.527 5.4521C168.19 5.52145 168.873 5.47613 169.526 5.55881C170.187 5.64417 170.859 5.70818 171.509 5.80954C172.167 5.91089 172.785 6.28164 173.432 6.39634C174.088 6.51371 174.711 6.79109 175.353 6.92447C176.006 7.0605 176.667 7.13784 177.306 7.28988C177.954 7.44459 178.652 7.40458 179.286 7.57263C179.929 7.74334 180.522 8.08743 181.15 8.2768C181.787 8.46884 182.316 8.9703 182.937 9.17836C183.568 9.38906 184.348 9.17301 184.96 9.39974C185.583 9.6318 186.217 9.83985 186.821 10.0906C187.434 10.344 187.86 11.0081 188.454 11.2802C189.058 11.5549 189.83 11.4802 190.412 11.7736C191.003 12.0724 191.348 12.8139 191.918 13.134C192.498 13.4567 193.42 13.2033 193.976 13.5474C194.54 13.8968 194.775 14.745 195.317 15.1131C195.865 15.4865 196.752 15.3985 197.273 15.7933C197.799 16.1934 198.171 16.7989 198.67 17.2176C199.175 17.6417 199.485 18.2792 199.96 18.7246C200.44 19.1754 201.303 19.2581 201.754 19.7302C202.207 20.205 202.169 21.1226 202.59 21.6187C203.014 22.1202 203.416 22.6216 203.807 23.1444C204.201 23.6672 204.703 24.1073 205.061 24.654C205.42 25.2009 206.043 25.5983 206.367 26.1638C206.691 26.7292 207.141 27.2573 207.427 27.8469C207.711 28.4337 207.662 29.1857 207.91 29.7914Z" stroke="#F5CC82" stroke-opacity="0.4" stroke-width="1.7008" stroke-miterlimit="10"/>
<path d="M286.724 228.453L285.415 229.976L283.946 231.371L283.039 233.206L280.602 233.806L279.412 235.401L279.21 237.85L276.698 238.306L276.219 240.557L274.249 241.461L273.324 243.329L271.573 244.417L269.902 245.563L268.868 247.354L267.878 249.212L266.605 250.794L264.295 251.229L263.149 252.95L261.234 253.793L259.598 254.943L258.978 257.346L257.266 258.429L255.527 259.464L253.534 260.148L252.471 262.088L250.724 263.101L248.678 263.674L246.739 264.38L245.01 265.379L243.886 267.331L241.992 268.084L240.694 269.817L238.598 270.219L237.165 271.767L235.309 272.574L233.186 272.867L231.4 273.775L229.296 274.042L228.141 276.247L226.247 276.947L223.838 276.495L222.557 278.558L220.533 278.941L218.623 279.569L216.581 279.858L214.889 281.044L212.836 281.268L211.396 283.233L209.378 283.565L207.001 282.732L205.188 283.637L203.367 284.542L201.522 285.394L199.439 285.37L197.48 285.794L195.708 287.009L193.499 286.328L191.623 287.135L189.73 287.888L187.62 287.508L185.888 289.258L183.724 288.459L181.782 289.036L179.761 289.048H177.746L175.771 289.407L173.802 289.864L171.835 290.473L169.763 289.537L167.812 290.546L165.827 291.268L163.777 289.826L161.791 291.061L159.779 289.888L157.779 290.045L155.748 291.07L153.727 291.181L151.752 290.336L149.734 290.471L147.714 290.502L145.763 289.749L143.637 290.796L141.649 290.406L139.744 289.409L137.659 289.809L135.757 288.921L133.914 287.787L131.751 288.504L129.981 287.086L127.799 287.739L125.894 287.043L124.13 285.787L122.144 285.498L119.878 286.237L118.259 284.547L116.085 284.853L114.299 283.815L112.559 282.684L110.319 283.076L108.482 282.236L106.354 282.21L104.406 281.661L102.711 280.452L100.65 280.175L99.0558 278.774L97.3346 277.703L95.8212 276.199L93.261 276.95L91.6719 275.614L89.8105 274.841L88.3376 273.317L86.1766 273.108L84.8546 271.344L82.5561 271.339L81.2073 269.663L79.5534 268.53L77.5354 267.983L76.049 266.58L74.7054 264.977L72.7629 264.291L71.3493 262.817L68.9807 262.697L67.7344 260.99L66.2856 259.572L64.5885 258.501L62.4305 257.998L61.71 255.697L59.808 254.862L58.2541 253.598L57.1912 251.778L55.0249 251.205L53.158 250.266L51.7822 248.796L50.4817 247.253L49.551 245.351L47.9944 244.08L47.0502 242.222L45.3749 241.061L43.9585 239.653L42.4017 238.365L41.1824 236.778L39.5044 235.58L38.5385 233.785L37.6861 231.915L36.0566 230.661L35.0746 228.904L33.4451 227.629L32.6061 225.775L30.8417 224.575L29.9324 222.777L29.3983 220.739L27.5261 219.576L26.5439 217.834L25.3893 216.199L24.348 214.492L24.0863 212.345L22.8183 210.777L21.9928 208.96L20.8166 207.33L19.3786 205.826L18.8229 203.874L17.6385 202.228L17.1691 200.249L16.3787 198.422L16.1008 196.376L15.0621 194.655L14.1476 192.882L14.0154 190.804L12.483 189.254L12.6664 187.08L11.0936 185.52L9.87422 183.821L10.4569 181.548L8.60354 180.028L9.03249 177.83L8.65749 175.875L7.71327 174.069L6.86344 172.226L7.51632 170.033L5.78971 168.38L6.62334 166.174L5.07478 164.453L4.3221 162.56L5.72227 160.306L3.75827 158.601L4.91561 156.427L3.3239 154.63L3.73668 152.576L3.15125 150.637L3.10807 148.642L3.9552 146.582L3.14586 144.651L3.74207 142.635L2.7061 140.693L3.64766 138.682L2.78434 136.713L3.48578 134.729L3.43722 132.75L2.43903 130.744L2.957 128.77L2.88686 126.777L3.64766 124.836L2.91654 122.793L4.39495 120.925L4.52715 118.954L3.35629 116.829L3.68542 114.863L4.44081 112.958L4.46778 110.953L4.35178 108.917L5.0721 107.021L5.439 105.063L5.24476 102.991L6.35085 101.19L7.78339 99.4804L6.66651 97.1678L7.50012 95.3194L8.8922 93.6336L9.67998 91.7984L10.2141 89.8914L10.1197 87.7842L10.1737 85.7063L12.1512 84.2741L12.5774 82.3243L12.5558 80.1982L13.9587 78.6033L14.4794 76.6749L15.3481 74.8851L16.1116 73.0526L15.9065 70.7828L17.161 69.1611L17.8921 67.2965L18.7015 65.4695L20.6385 64.2132L20.2932 61.7858L21.3157 60.0601L23.3768 58.9186L23.3336 56.6007L24.5341 54.9843L25.7778 53.3999L26.7437 51.6449L28.7507 50.5566L28.7939 48.204L29.911 46.5395L31.4217 45.1445L33.5071 44.179L34.7671 42.6293" stroke="#F5CC82" stroke-opacity="0.4" stroke-width="1.7008" stroke-miterlimit="10"/>
</g>
</g>
<defs>
<clipPath id="clip0_1_619">
<rect width="300" height="296.082" fill="white"/>
</clipPath>
</defs>
</svg>
